<svg width="48" height="256" viewBox="0 0 48 256" fill="none" xmlns="http://www.w3.org/2000/svg">
<rect width="256" height="48" transform="translate(48) rotate(90)" fill="white"/>
<path d="M19 40.5413L28.8 44.0973L28.8 47.7233L19 51.2513L19 48.9413L21.156 48.1993L21.156 43.5793L19 42.8373L19 40.5413ZM27.036 46.2113L27.036 45.5813L22.864 44.1673L22.864 47.6253L27.036 46.2113ZM25.706 60.5242C25.1833 60.5242 24.6887 60.4028 24.222 60.1602C23.7553 59.9175 23.3727 59.5302 23.074 58.9982C22.7753 58.4755 22.626 57.7942 22.626 56.9542L22.626 54.9802L19 54.9802L19 52.7822L28.8 52.7822L28.8 56.9542C28.8 57.7475 28.66 58.4055 28.38 58.9282C28.1093 59.4602 27.7407 59.8568 27.274 60.1182C26.8073 60.3888 26.2847 60.5242 25.706 60.5242ZM24.39 56.8142C24.39 57.3275 24.5067 57.7008 24.74 57.9342C24.9733 58.1768 25.2953 58.2982 25.706 58.2982C26.1167 58.2982 26.4387 58.1768 26.672 57.9342C26.9053 57.7008 27.022 57.3275 27.022 56.8142L27.022 54.9802L24.39 54.9802L24.39 56.8142ZM25.706 70.1623C25.1833 70.1623 24.6887 70.0409 24.222 69.7983C23.7553 69.5556 23.3727 69.1683 23.074 68.6363C22.7753 68.1136 22.626 67.4323 22.626 66.5923L22.626 64.6183L19 64.6183L19 62.4203L28.8 62.4203L28.8 66.5923C28.8 67.3856 28.66 68.0436 28.38 68.5663C28.1093 69.0983 27.7407 69.4949 27.274 69.7563C26.8073 70.0269 26.2847 70.1623 25.706 70.1623ZM24.39 66.4523C24.39 66.9656 24.5067 67.3389 24.74 67.5723C24.9733 67.8149 25.2953 67.9363 25.706 67.9363C26.1167 67.9363 26.4387 67.8149 26.672 67.5723C26.9053 67.3389 27.022 66.9656 27.022 66.4523L27.022 64.6183L24.39 64.6183L24.39 66.4523ZM28.8 74.2564L20.708 74.2564L20.708 78.5404L19 78.5404L19 72.0584L28.8 72.0584L28.8 74.2564ZM28.8 84.3223L28.8 86.7863L22.332 83.4263L19 83.4263L19 81.2283L22.318 81.2283L28.8 77.8683L28.8 80.3463L24.516 82.3483L28.8 84.3223ZM19 91.4111L28.8 94.9671L28.8 98.5931L19 102.121L19 99.8111L21.156 99.0691L21.156 94.4491L19 93.7071L19 91.4111ZM27.036 97.0811L27.036 96.4511L22.864 95.0371L22.864 98.4951L27.036 97.0811ZM21.786 105.181C21.394 105.256 21.1093 105.452 20.932 105.769C20.7547 106.096 20.666 106.455 20.666 106.847C20.666 107.249 20.7593 107.58 20.946 107.841C21.142 108.112 21.4033 108.247 21.73 108.247C22.01 108.247 22.234 108.154 22.402 107.967C22.5793 107.79 22.724 107.552 22.836 107.253C22.9573 106.955 23.0647 106.628 23.158 106.273C23.2607 105.919 23.3773 105.564 23.508 105.209C23.6387 104.855 23.8067 104.528 24.012 104.229C24.2267 103.931 24.4973 103.693 24.824 103.515C25.1507 103.338 25.566 103.249 26.07 103.249C26.6673 103.249 27.1807 103.403 27.61 103.711C28.0393 104.019 28.366 104.435 28.59 104.957C28.8233 105.489 28.94 106.096 28.94 106.777C28.94 107.692 28.7487 108.457 28.366 109.073C27.9833 109.689 27.4373 110.091 26.728 110.277L26.266 108.317C26.5367 108.271 26.7513 108.098 26.91 107.799C27.078 107.51 27.1667 107.193 27.176 106.847C27.1853 106.502 27.1013 106.189 26.924 105.909C26.756 105.629 26.4947 105.489 26.14 105.489C25.8787 105.489 25.664 105.578 25.496 105.755C25.328 105.933 25.1833 106.171 25.062 106.469C24.95 106.768 24.838 107.095 24.726 107.449C24.614 107.813 24.488 108.173 24.348 108.527C24.208 108.882 24.0307 109.209 23.816 109.507C23.6013 109.806 23.3307 110.044 23.004 110.221C22.6867 110.399 22.29 110.487 21.814 110.487C21.2727 110.487 20.7827 110.347 20.344 110.067C19.9053 109.797 19.5553 109.4 19.294 108.877C19.042 108.355 18.916 107.715 18.916 106.959C18.916 106.343 19.0047 105.769 19.182 105.237C19.3687 104.715 19.6393 104.271 19.994 103.907C20.3487 103.543 20.7873 103.296 21.31 103.165L21.786 105.181ZM19 115.349L28.8 118.905L28.8 122.531L19 126.059L19 123.749L21.156 123.007L21.156 118.387L19 117.645L19 115.349ZM27.036 121.019L27.036 120.389L22.864 118.975L22.864 122.433L27.036 121.019ZM28.8 136.186L19 136.186L19 134.002L25.37 129.788L19 129.788L19 127.59L28.8 127.59L28.8 129.788L22.416 133.988L28.8 133.988L28.8 136.186ZM28.8 142.204L28.8 144.402L19 144.402L19 142.204L28.8 142.204ZM28.8 155.325L19 155.325L19 153.141L25.37 148.927L19 148.927L19 146.729L28.8 146.729L28.8 148.927L22.416 153.127L28.8 153.127L28.8 155.325ZM28.8 164.512L28.8 166.836L19 163.308L19 160.592L28.8 157.064L28.8 159.402L21.212 161.95L28.8 164.512ZM27.036 175.701L27.036 170.773L24.88 170.773L24.88 174.329L23.102 174.329L23.102 170.773L20.764 170.773L20.764 175.701L19 175.701L19 168.575L28.8 168.575L28.8 175.701L27.036 175.701ZM21.786 179.415C21.394 179.489 21.1093 179.685 20.932 180.003C20.7547 180.329 20.666 180.689 20.666 181.081C20.666 181.482 20.7593 181.813 20.946 182.075C21.142 182.345 21.4033 182.481 21.73 182.481C22.01 182.481 22.234 182.387 22.402 182.201C22.5793 182.023 22.724 181.785 22.836 181.487C22.9573 181.188 23.0647 180.861 23.158 180.507C23.2607 180.152 23.3773 179.797 23.508 179.443C23.6387 179.088 23.8067 178.761 24.012 178.463C24.2267 178.164 24.4973 177.926 24.824 177.749C25.1507 177.571 25.566 177.483 26.07 177.483C26.6673 177.483 27.1807 177.637 27.61 177.945C28.0393 178.253 28.366 178.668 28.59 179.191C28.8233 179.723 28.94 180.329 28.94 181.011C28.94 181.925 28.7487 182.691 28.366 183.307C27.9833 183.923 27.4373 184.324 26.728 184.511L26.266 182.551C26.5367 182.504 26.7513 182.331 26.91 182.033C27.078 181.743 27.1667 181.426 27.176 181.081C27.1853 180.735 27.1013 180.423 26.924 180.143C26.756 179.863 26.4947 179.723 26.14 179.723C25.8787 179.723 25.664 179.811 25.496 179.989C25.328 180.166 25.1833 180.404 25.062 180.703C24.95 181.001 24.838 181.328 24.726 181.683C24.614 182.047 24.488 182.406 24.348 182.761C24.208 183.115 24.0307 183.442 23.816 183.741C23.6013 184.039 23.3307 184.277 23.004 184.455C22.6867 184.632 22.29 184.721 21.814 184.721C21.2727 184.721 20.7827 184.581 20.344 184.301C19.9053 184.03 19.5553 183.633 19.294 183.111C19.042 182.588 18.916 181.949 18.916 181.193C18.916 180.577 19.0047 180.003 19.182 179.471C19.3687 178.948 19.6393 178.505 19.994 178.141C20.3487 177.777 20.7873 177.529 21.31 177.399L21.786 179.415ZM28.8 186.023L28.8 194.269L27.036 194.269L27.036 191.231L19 191.231L19 189.047L27.036 189.047L27.036 186.023L28.8 186.023ZM18.902 200.236C18.902 199.545 19.0233 198.896 19.266 198.29C19.518 197.683 19.868 197.146 20.316 196.68C20.764 196.222 21.2913 195.863 21.898 195.602C22.514 195.35 23.1907 195.224 23.928 195.224C24.656 195.224 25.3233 195.35 25.93 195.602C26.546 195.863 27.078 196.222 27.526 196.68C27.974 197.146 28.3193 197.683 28.562 198.29C28.8047 198.896 28.926 199.545 28.926 200.236C28.926 200.936 28.8047 201.589 28.562 202.196C28.3193 202.802 27.974 203.334 27.526 203.792C27.078 204.249 26.546 204.604 25.93 204.856C25.3233 205.117 24.656 205.248 23.928 205.248C23.1907 205.248 22.514 205.117 21.898 204.856C21.2913 204.604 20.764 204.249 20.316 203.792C19.868 203.334 19.518 202.802 19.266 202.196C19.0233 201.589 18.902 200.936 18.902 200.236ZM20.89 200.236C20.89 200.786 21.0113 201.272 21.254 201.692C21.506 202.112 21.8607 202.438 22.318 202.672C22.7753 202.905 23.312 203.022 23.928 203.022C24.852 203.022 25.5847 202.765 26.126 202.252C26.6767 201.738 26.952 201.066 26.952 200.236C26.952 199.396 26.6767 198.719 26.126 198.206C25.5847 197.702 24.852 197.45 23.928 197.45C23.312 197.45 22.7753 197.566 22.318 197.8C21.8607 198.033 21.506 198.355 21.254 198.766C21.0113 199.186 20.89 199.676 20.89 200.236ZM28.8 211.425C28.8 212.219 28.66 212.877 28.38 213.399C28.1093 213.931 27.7407 214.328 27.274 214.589C26.8167 214.86 26.308 214.995 25.748 214.995C25.1507 214.995 24.586 214.818 24.054 214.463C23.522 214.118 23.1487 213.558 22.934 212.783L19 215.093L19 212.601L22.752 210.501L22.752 209.339L19 209.339L19 207.141L28.8 207.141L28.8 211.425ZM25.678 212.755C26.07 212.755 26.3873 212.639 26.63 212.405C26.8727 212.172 26.994 211.808 26.994 211.313L26.994 209.339L24.348 209.339L24.348 211.313C24.348 211.808 24.4647 212.172 24.698 212.405C24.9407 212.639 25.2673 212.755 25.678 212.755Z" fill="#22A7F6"/>
</svg>
