<svg width="48" height="240" viewBox="0 0 48 240" fill="none" xmlns="http://www.w3.org/2000/svg">
<rect width="240" height="48" transform="translate(48) rotate(90)" fill="#22A7F6" fill-opacity="0.1"/>
<path d="M19 41.2361L28.8 44.7921L28.8 48.4181L19 51.9461L19 49.6361L21.156 48.8941L21.156 44.2741L19 43.5321L19 41.2361ZM27.036 46.9061L27.036 46.2761L22.864 44.8621L22.864 48.3201L27.036 46.9061ZM25.706 61.2189C25.1833 61.2189 24.6887 61.0976 24.222 60.8549C23.7553 60.6123 23.3727 60.2249 23.074 59.6929C22.7753 59.1703 22.626 58.4889 22.626 57.6489L22.626 55.6749L19 55.6749L19 53.4769L28.8 53.4769L28.8 57.6489C28.8 58.4423 28.66 59.1003 28.38 59.6229C28.1093 60.1549 27.7407 60.5516 27.274 60.8129C26.8073 61.0836 26.2847 61.2189 25.706 61.2189ZM24.39 57.5089C24.39 58.0223 24.5067 58.3956 24.74 58.6289C24.9733 58.8716 25.2953 58.9929 25.706 58.9929C26.1167 58.9929 26.4387 58.8716 26.672 58.6289C26.9053 58.3956 27.022 58.0223 27.022 57.5089L27.022 55.6749L24.39 55.6749L24.39 57.5089ZM25.706 70.857C25.1833 70.857 24.6887 70.7357 24.222 70.493C23.7553 70.2504 23.3727 69.863 23.074 69.331C22.7753 68.8084 22.626 68.127 22.626 67.287L22.626 65.313L19 65.313L19 63.115L28.8 63.115L28.8 67.287C28.8 68.0804 28.66 68.7384 28.38 69.261C28.1093 69.793 27.7407 70.1897 27.274 70.451C26.8073 70.7217 26.2847 70.857 25.706 70.857ZM24.39 67.147C24.39 67.6604 24.5067 68.0337 24.74 68.267C24.9733 68.5097 25.2953 68.631 25.706 68.631C26.1167 68.631 26.4387 68.5097 26.672 68.267C26.9053 68.0337 27.022 67.6604 27.022 67.147L27.022 65.313L24.39 65.313L24.39 67.147ZM28.8 74.9512L20.708 74.9512L20.708 79.2352L19 79.2352L19 72.7532L28.8 72.7532L28.8 74.9512ZM28.8 85.0171L28.8 87.4811L22.332 84.1211L19 84.1211L19 81.9231L22.318 81.9231L28.8 78.5631L28.8 81.0411L24.516 83.0431L28.8 85.0171ZM19 92.1059L28.8 95.6619L28.8 99.2879L19 102.816L19 100.506L21.156 99.7639L21.156 95.1439L19 94.4019L19 92.1059ZM27.036 97.7759L27.036 97.1459L22.864 95.7319L22.864 99.1899L27.036 97.7759ZM21.786 105.876C21.394 105.951 21.1093 106.147 20.932 106.464C20.7547 106.791 20.666 107.15 20.666 107.542C20.666 107.943 20.7593 108.275 20.946 108.536C21.142 108.807 21.4033 108.942 21.73 108.942C22.01 108.942 22.234 108.849 22.402 108.662C22.5793 108.485 22.724 108.247 22.836 107.948C22.9573 107.649 23.0647 107.323 23.158 106.968C23.2607 106.613 23.3773 106.259 23.508 105.904C23.6387 105.549 23.8067 105.223 24.012 104.924C24.2267 104.625 24.4973 104.387 24.824 104.21C25.1507 104.033 25.566 103.944 26.07 103.944C26.6673 103.944 27.1807 104.098 27.61 104.406C28.0393 104.714 28.366 105.129 28.59 105.652C28.8233 106.184 28.94 106.791 28.94 107.472C28.94 108.387 28.7487 109.152 28.366 109.768C27.9833 110.384 27.4373 110.785 26.728 110.972L26.266 109.012C26.5367 108.965 26.7513 108.793 26.91 108.494C27.078 108.205 27.1667 107.887 27.176 107.542C27.1853 107.197 27.1013 106.884 26.924 106.604C26.756 106.324 26.4947 106.184 26.14 106.184C25.8787 106.184 25.664 106.273 25.496 106.45C25.328 106.627 25.1833 106.865 25.062 107.164C24.95 107.463 24.838 107.789 24.726 108.144C24.614 108.508 24.488 108.867 24.348 109.222C24.208 109.577 24.0307 109.903 23.816 110.202C23.6013 110.501 23.3307 110.739 23.004 110.916C22.6867 111.093 22.29 111.182 21.814 111.182C21.2727 111.182 20.7827 111.042 20.344 110.762C19.9053 110.491 19.5553 110.095 19.294 109.572C19.042 109.049 18.916 108.41 18.916 107.654C18.916 107.038 19.0047 106.464 19.182 105.932C19.3687 105.409 19.6393 104.966 19.994 104.602C20.3487 104.238 20.7873 103.991 21.31 103.86L21.786 105.876ZM19 116.044L28.8 119.6L28.8 123.226L19 126.754L19 124.444L21.156 123.702L21.156 119.082L19 118.34L19 116.044ZM27.036 121.714L27.036 121.084L22.864 119.67L22.864 123.128L27.036 121.714ZM21.786 133.641C21.394 133.716 21.1093 133.912 20.932 134.229C20.7547 134.556 20.666 134.915 20.666 135.307C20.666 135.709 20.7593 136.04 20.946 136.301C21.142 136.572 21.4033 136.707 21.73 136.707C22.01 136.707 22.234 136.614 22.402 136.427C22.5793 136.25 22.724 136.012 22.836 135.713C22.9573 135.415 23.0647 135.088 23.158 134.733C23.2607 134.379 23.3773 134.024 23.508 133.669C23.6387 133.315 23.8067 132.988 24.012 132.689C24.2267 132.391 24.4973 132.153 24.824 131.975C25.1507 131.798 25.566 131.709 26.07 131.709C26.6673 131.709 27.1807 131.863 27.61 132.171C28.0393 132.479 28.366 132.895 28.59 133.417C28.8233 133.949 28.94 134.556 28.94 135.237C28.94 136.152 28.7487 136.917 28.366 137.533C27.9833 138.149 27.4373 138.551 26.728 138.737L26.266 136.777C26.5367 136.731 26.7513 136.558 26.91 136.259C27.078 135.97 27.1667 135.653 27.176 135.307C27.1853 134.962 27.1013 134.649 26.924 134.369C26.756 134.089 26.4947 133.949 26.14 133.949C25.8787 133.949 25.664 134.038 25.496 134.215C25.328 134.393 25.1833 134.631 25.062 134.929C24.95 135.228 24.838 135.555 24.726 135.909C24.614 136.273 24.488 136.633 24.348 136.987C24.208 137.342 24.0307 137.669 23.816 137.967C23.6013 138.266 23.3307 138.504 23.004 138.681C22.6867 138.859 22.29 138.947 21.814 138.947C21.2727 138.947 20.7827 138.807 20.344 138.527C19.9053 138.257 19.5553 137.86 19.294 137.337C19.042 136.815 18.916 136.175 18.916 135.419C18.916 134.803 19.0047 134.229 19.182 133.697C19.3687 133.175 19.6393 132.731 19.994 132.367C20.3487 132.003 20.7873 131.756 21.31 131.625L21.786 133.641ZM28.8 140.25L28.8 148.496L27.036 148.496L27.036 145.458L19 145.458L19 143.274L27.036 143.274L27.036 140.25L28.8 140.25ZM19 148.321L28.8 151.877L28.8 155.503L19 159.031L19 156.721L21.156 155.979L21.156 151.359L19 150.617L19 148.321ZM27.036 153.991L27.036 153.361L22.864 151.947L22.864 155.405L27.036 153.991ZM28.8 164.846C28.8 165.639 28.66 166.297 28.38 166.82C28.1093 167.352 27.7407 167.748 27.274 168.01C26.8167 168.28 26.308 168.416 25.748 168.416C25.1507 168.416 24.586 168.238 24.054 167.884C23.522 167.538 23.1487 166.978 22.934 166.204L19 168.514L19 166.022L22.752 163.922L22.752 162.76L19 162.76L19 160.562L28.8 160.562L28.8 164.846ZM25.678 166.176C26.07 166.176 26.3873 166.059 26.63 165.826C26.8727 165.592 26.994 165.228 26.994 164.734L26.994 162.76L24.348 162.76L24.348 164.734C24.348 165.228 24.4647 165.592 24.698 165.826C24.9407 166.059 25.2673 166.176 25.678 166.176ZM28.8 169.943L28.8 178.189L27.036 178.189L27.036 175.151L19 175.151L19 172.967L27.036 172.967L27.036 169.943L28.8 169.943ZM28.8 180.028L28.8 182.212L22.836 182.212C22.2107 182.212 21.73 182.39 21.394 182.744C21.0673 183.108 20.904 183.589 20.904 184.186C20.904 184.784 21.0673 185.264 21.394 185.628C21.73 185.992 22.2107 186.174 22.836 186.174L28.8 186.174L28.8 188.372L22.85 188.372C22.1873 188.372 21.6087 188.256 21.114 188.022C20.6193 187.798 20.2087 187.486 19.882 187.084C19.5553 186.692 19.308 186.24 19.14 185.726C18.9813 185.222 18.902 184.695 18.902 184.144C18.902 183.407 19.0467 182.726 19.336 182.1C19.6253 181.475 20.0593 180.971 20.638 180.588C21.226 180.215 21.9633 180.028 22.85 180.028L28.8 180.028ZM25.706 198.394C25.1833 198.394 24.6887 198.272 24.222 198.03C23.7553 197.787 23.3727 197.4 23.074 196.868C22.7753 196.345 22.626 195.664 22.626 194.824L22.626 192.85L19 192.85L19 190.652L28.8 190.652L28.8 194.824C28.8 195.617 28.66 196.275 28.38 196.798C28.1093 197.33 27.7407 197.726 27.274 197.988C26.8073 198.258 26.2847 198.394 25.706 198.394ZM24.39 194.684C24.39 195.197 24.5067 195.57 24.74 195.804C24.9733 196.046 25.2953 196.168 25.706 196.168C26.1167 196.168 26.4387 196.046 26.672 195.804C26.9053 195.57 27.022 195.197 27.022 194.684L27.022 192.85L24.39 192.85L24.39 194.684Z" fill="#22A7F6"/>
</svg>
