<svg width="1036" height="432" viewBox="0 0 1036 432" fill="none" xmlns="http://www.w3.org/2000/svg">
<rect x="74" y="5" width="884" height="280" rx="140" stroke="url(#paint0_linear_1_520)" stroke-width="9"/>
<path d="M326.572 153.504C322.972 153.504 319.612 152.88 316.492 151.632C313.372 150.384 310.636 148.632 308.284 146.376C305.932 144.072 304.084 141.36 302.74 138.24C301.396 135.072 300.724 131.592 300.724 127.8C300.724 124.008 301.396 120.552 302.74 117.432C304.084 114.264 305.932 111.552 308.284 109.296C310.636 106.992 313.372 105.216 316.492 103.968C319.612 102.72 322.972 102.096 326.572 102.096C330.124 102.096 333.46 102.72 336.58 103.968C339.748 105.216 342.484 106.992 344.788 109.296C347.14 111.552 348.988 114.264 350.332 117.432C351.676 120.552 352.348 124.008 352.348 127.8C352.348 131.592 351.676 135.072 350.332 138.24C348.988 141.36 347.14 144.072 344.788 146.376C342.436 148.632 339.7 150.384 336.58 151.632C333.46 152.88 330.124 153.504 326.572 153.504ZM326.572 144C329.404 144 331.9 143.328 334.06 141.984C336.268 140.592 337.972 138.672 339.172 136.224C340.42 133.776 341.044 130.968 341.044 127.8C341.044 124.584 340.42 121.776 339.172 119.376C337.972 116.928 336.268 115.032 334.06 113.688C331.9 112.296 329.404 111.6 326.572 111.6C323.644 111.6 321.1 112.296 318.94 113.688C316.78 115.032 315.076 116.928 313.828 119.376C312.628 121.776 312.028 124.584 312.028 127.8C312.028 130.968 312.628 133.776 313.828 136.224C315.076 138.672 316.78 140.592 318.94 141.984C321.1 143.328 323.644 144 326.572 144ZM400.323 102.6V153H389.091L368.643 120.24V153H357.483V102.6H368.787L389.163 135.504V102.6H400.323ZM444.3 111.888H418.812V123.048H437.892V131.904H418.812V143.712H444.3V153H407.652V102.6H444.3V111.888ZM470.695 102.6H476.455V124.848H503.455V102.6H509.215V153H503.455V129.888H476.455V153H470.695V102.6ZM553.069 107.64H525.781V124.848H546.301V129.888H525.781V147.96H553.069V153H520.021V102.6H553.069V107.64ZM581.824 107.64H579.448L562.816 153H556.984L575.416 102.6H585.784L604.144 153H598.312L581.824 107.64ZM565.984 134.712H595.36V139.752H565.984V134.712ZM615.151 102.6V147.96H638.695V153H609.391V102.6H615.151ZM642.333 102.6H680.133V107.64H664.149V153H658.389V107.64H642.333V102.6ZM687.863 102.6H693.623V124.848H720.623V102.6H726.383V153H720.623V129.888H693.623V153H687.863V102.6Z" fill="url(#paint1_linear_1_520)"/>
<circle opacity="0.1" cx="84.5" cy="108.5" r="78.5" fill="white"/>
<circle cx="84.5" cy="108.5" r="62.5" fill="url(#paint2_linear_1_520)"/>
<path d="M108.5 104.625C108.5 105.836 108.141 107.021 107.468 108.028C106.795 109.035 105.838 109.82 104.719 110.284C103.6 110.747 102.368 110.869 101.18 110.632C99.9919 110.396 98.9006 109.813 98.044 108.956C97.1874 108.099 96.604 107.008 96.3677 105.82C96.1314 104.632 96.2527 103.4 96.7162 102.281C97.1798 101.162 97.9649 100.205 98.9721 99.5323C99.9794 98.8592 101.164 98.5 102.375 98.5C103.998 98.5058 105.552 99.1529 106.7 100.3C107.847 101.448 108.494 103.002 108.5 104.625ZM71.75 104.625C71.75 103.414 71.3908 102.229 70.7178 101.222C70.0447 100.215 69.0881 99.4298 67.9689 98.9662C66.8497 98.5027 65.6182 98.3814 64.4301 98.6177C63.2419 98.854 62.1506 99.4374 61.294 100.294C60.4374 101.151 59.854 102.242 59.6177 103.43C59.3814 104.618 59.5027 105.85 59.9662 106.969C60.4298 108.088 61.2149 109.045 62.2221 109.718C63.2294 110.391 64.4136 110.75 65.625 110.75C67.2477 110.744 68.8022 110.097 69.9497 108.95C71.0971 107.802 71.7442 106.248 71.75 104.625ZM76.125 100.25C77.3364 100.25 78.5206 99.8908 79.5279 99.2178C80.5351 98.5447 81.3202 97.5881 81.7838 96.4689C82.2474 95.3497 82.3686 94.1182 82.1323 92.9301C81.896 91.7419 81.3126 90.6506 80.456 89.794C79.5994 88.9374 78.5081 88.354 77.3199 88.1177C76.1318 87.8814 74.9003 88.0027 73.7811 88.4662C72.6619 88.9298 71.7053 89.7149 71.0323 90.7221C70.3592 91.7294 70 92.9136 70 94.125C70.0058 95.7477 70.6529 97.3022 71.8003 98.4497C72.9478 99.5971 74.5023 100.244 76.125 100.25ZM91.875 100.25C93.0864 100.25 94.2706 99.8908 95.2779 99.2178C96.2851 98.5447 97.0702 97.5881 97.5338 96.4689C97.9974 95.3497 98.1186 94.1182 97.8823 92.9301C97.646 91.7419 97.0626 90.6506 96.206 89.794C95.3494 88.9374 94.2581 88.354 93.0699 88.1177C91.8818 87.8814 90.6503 88.0027 89.5311 88.4662C88.4119 88.9298 87.4553 89.7149 86.7823 90.7221C86.1092 91.7294 85.75 92.9136 85.75 94.125C85.7558 95.7477 86.4029 97.3022 87.5503 98.4497C88.6978 99.5971 90.2523 100.244 91.875 100.25ZM96.9281 113.55C96.0389 113.061 95.2547 112.402 94.6203 111.61C93.986 110.818 93.514 109.909 93.2313 108.934C92.6565 106.93 91.4449 105.167 89.7795 103.912C88.1141 102.657 86.0854 101.978 84 101.978C81.9146 101.978 79.8859 102.657 78.2205 103.912C76.5551 105.167 75.3435 106.93 74.7688 108.934C74.1987 110.896 72.8783 112.555 71.0938 113.55C69.3798 114.475 68.0235 115.946 67.2397 117.729C66.4558 119.512 66.2893 121.505 66.7664 123.393C67.2435 125.282 68.337 126.957 69.8736 128.154C71.4103 129.35 73.3023 130 75.25 130C76.4138 129.999 77.5659 129.768 78.6406 129.322C82.0638 127.904 85.9086 127.896 89.3375 129.3C90.4159 129.762 91.5768 130 92.75 130C94.6996 130.005 96.5949 129.359 98.1353 128.164C99.6757 126.969 100.773 125.294 101.253 123.404C101.733 121.514 101.568 119.519 100.784 117.734C100.001 115.948 98.6437 114.476 96.9281 113.55Z" fill="white"/>
<rect y="203" width="169" height="56" rx="28" fill="white"/>
<path d="M28.656 227.956H28.224L25.752 235H24.084L27.096 226.6H29.772L32.784 235H31.116L28.656 227.956ZM25.908 231.712H30.804V233.068H25.908V231.712ZM42.5551 226.6V235H40.8991L37.2271 229.168V235H35.6071V226.6H37.2511L40.9351 232.432V226.6H42.5551ZM46.1052 226.6H47.7252V235H46.1052V226.6ZM52.903 235H51.283V226.6H53.131L55.807 232.888L58.483 226.6H60.331V235H58.711V229.576L56.443 235H55.171L52.903 229.576V235ZM67.7188 227.956H67.2868L64.8148 235H63.1468L66.1588 226.6H68.8348L71.8468 235H70.1788L67.7188 227.956ZM64.9708 231.712H69.8668V233.068H64.9708V231.712ZM76.2899 226.6V233.644H80.0339V235H74.6699V226.6H76.2899ZM88.3185 226.6H89.9385V230.068H93.6585V226.6H95.2785V235H93.6585V231.424H89.9385V235H88.3185V226.6ZM104.732 227.956H100.448V230.092H103.652V231.4H100.448V233.644H104.732V235H98.8283V226.6H104.732V227.956ZM111.889 227.956H111.457L108.985 235H107.317L110.329 226.6H113.005L116.017 235H114.349L111.889 227.956ZM109.141 231.712H114.037V233.068H109.141V231.712ZM120.46 226.6V233.644H124.204V235H118.84V226.6H120.46ZM126.798 226.6H133.614V227.956H131.022V235H129.402V227.956H126.798V226.6ZM136.743 226.6H138.363V230.068H142.083V226.6H143.703V235H142.083V231.424H138.363V235H136.743V226.6Z" fill="#04225E"/>
<circle opacity="0.1" cx="954.5" cy="108.5" r="78.5" fill="white"/>
<circle cx="954.5" cy="108.5" r="62.5" fill="url(#paint3_linear_1_520)"/>
<path d="M974.35 121.656C974.227 121.91 974.035 122.123 973.796 122.272C973.557 122.421 973.281 122.5 973 122.5H956.5V130C956.5 130.398 956.342 130.779 956.061 131.061C955.779 131.342 955.398 131.5 955 131.5C954.602 131.5 954.221 131.342 953.939 131.061C953.658 130.779 953.5 130.398 953.5 130V122.5H937C936.72 122.499 936.445 122.42 936.208 122.271C935.971 122.122 935.78 121.91 935.657 121.658C935.534 121.407 935.484 121.125 935.512 120.847C935.541 120.568 935.647 120.303 935.819 120.081L944.425 109H940C939.72 108.999 939.445 108.92 939.208 108.771C938.971 108.622 938.78 108.41 938.657 108.158C938.534 107.907 938.484 107.625 938.512 107.347C938.541 107.068 938.647 106.803 938.819 106.581L953.819 87.0814C953.959 86.9021 954.138 86.7571 954.343 86.6574C954.548 86.5577 954.772 86.5059 955 86.5059C955.228 86.5059 955.452 86.5577 955.657 86.6574C955.862 86.7571 956.041 86.9021 956.181 87.0814L971.181 106.581C971.353 106.803 971.459 107.068 971.488 107.347C971.516 107.625 971.466 107.907 971.343 108.158C971.22 108.41 971.029 108.622 970.792 108.771C970.554 108.92 970.28 108.999 970 109H965.575L974.181 120.081C974.353 120.302 974.461 120.566 974.49 120.845C974.52 121.123 974.472 121.404 974.35 121.656Z" fill="white"/>
<rect x="873" y="203" width="163" height="54" rx="27" fill="white"/>
<path d="M903.82 217.956H899.536V220.092H902.74V221.4H899.536V223.644H903.82V225H897.916V216.6H903.82V217.956ZM914.085 216.6V225H912.429L908.757 219.168V225H907.137V216.6H908.781L912.465 222.432V216.6H914.085ZM923.479 216.6H925.207L922.123 225H920.167L917.095 216.6H918.823L921.151 223.344L923.479 216.6ZM928.215 216.6H929.835V225H928.215V216.6ZM938.205 219.192C938.205 218.816 938.089 218.516 937.857 218.292C937.633 218.068 937.281 217.956 936.801 217.956H935.013V220.44H936.801C937.121 220.44 937.385 220.392 937.593 220.296C937.801 220.192 937.953 220.048 938.049 219.864C938.153 219.672 938.205 219.448 938.205 219.192ZM936.849 216.6C937.529 216.6 938.089 216.72 938.529 216.96C938.977 217.192 939.309 217.508 939.525 217.908C939.749 218.3 939.861 218.728 939.861 219.192C939.861 219.504 939.805 219.816 939.693 220.128C939.581 220.432 939.405 220.712 939.165 220.968C938.925 221.216 938.613 221.416 938.229 221.568C937.853 221.72 937.393 221.796 936.849 221.796H935.013V225H933.393V216.6H936.849ZM937.761 221.256L940.029 225H938.217L936.045 221.256H937.761ZM947.064 225.084C946.472 225.084 945.916 224.98 945.396 224.772C944.876 224.564 944.42 224.272 944.028 223.896C943.644 223.512 943.34 223.06 943.116 222.54C942.892 222.012 942.78 221.432 942.78 220.8C942.78 220.168 942.892 219.592 943.116 219.072C943.34 218.552 943.644 218.1 944.028 217.716C944.42 217.332 944.876 217.036 945.396 216.828C945.916 216.62 946.472 216.516 947.064 216.516C947.664 216.516 948.22 216.62 948.732 216.828C949.252 217.036 949.708 217.332 950.1 217.716C950.492 218.1 950.796 218.552 951.012 219.072C951.236 219.592 951.348 220.168 951.348 220.8C951.348 221.432 951.236 222.012 951.012 222.54C950.796 223.06 950.492 223.512 950.1 223.896C949.708 224.272 949.252 224.564 948.732 224.772C948.22 224.98 947.664 225.084 947.064 225.084ZM947.076 223.704C947.58 223.704 948.028 223.584 948.42 223.344C948.82 223.096 949.132 222.756 949.356 222.324C949.588 221.892 949.704 221.384 949.704 220.8C949.704 220.216 949.588 219.708 949.356 219.276C949.132 218.844 948.82 218.508 948.42 218.268C948.028 218.02 947.58 217.896 947.076 217.896C946.556 217.896 946.096 218.02 945.696 218.268C945.304 218.508 944.996 218.844 944.772 219.276C944.548 219.708 944.436 220.216 944.436 220.8C944.436 221.376 944.548 221.884 944.772 222.324C944.996 222.764 945.304 223.104 945.696 223.344C946.096 223.584 946.556 223.704 947.076 223.704ZM956.103 225H954.483V216.6H956.331L959.007 222.888L961.683 216.6H963.531V225H961.911V219.576L959.643 225H958.371L956.103 219.576V225ZM972.983 217.956H968.699V220.092H971.903V221.4H968.699V223.644H972.983V225H967.079V216.6H972.983V217.956ZM983.248 216.6V225H981.592L977.92 219.168V225H976.3V216.6H977.944L981.628 222.432V216.6H983.248ZM986.39 216.6H993.206V217.956H990.614V225H988.994V217.956H986.39V216.6ZM999.319 217.956H998.887L996.415 225H994.747L997.759 216.6H1000.44L1003.45 225H1001.78L999.319 217.956ZM996.571 221.712H1001.47V223.068H996.571V221.712ZM1007.89 216.6V223.644H1011.63V225H1006.27V216.6H1007.89ZM926.809 235.6H928.429V239.068H932.149V235.6H933.769V244H932.149V240.424H928.429V244H926.809V235.6ZM943.223 236.956H938.939V239.092H942.143V240.4H938.939V242.644H943.223V244H937.319V235.6H943.223V236.956ZM950.38 236.956H949.948L947.476 244H945.808L948.82 235.6H951.496L954.508 244H952.84L950.38 236.956ZM947.632 240.712H952.528V242.068H947.632V240.712ZM958.951 235.6V242.644H962.695V244H957.331V235.6H958.951ZM965.288 235.6H972.104V236.956H969.512V244H967.892V236.956H965.288V235.6ZM975.233 235.6H976.853V239.068H980.573V235.6H982.193V244H980.573V240.424H976.853V244H975.233V235.6Z" fill="#04225E"/>
<circle opacity="0.1" cx="514" cy="281.5" r="78.5" fill="white"/>
<circle cx="513.5" cy="281.5" r="62.5" fill="url(#paint4_linear_1_520)"/>
<path d="M536.728 300.375C533.463 294.75 528.236 290.528 522.05 288.519C525.015 286.756 527.319 284.068 528.609 280.868C529.898 277.668 530.101 274.134 529.187 270.807C528.273 267.481 526.291 264.547 523.548 262.455C520.804 260.364 517.45 259.231 514 259.231C510.55 259.231 507.196 260.364 504.452 262.455C501.709 264.547 499.728 267.481 498.813 270.807C497.899 274.134 498.102 277.668 499.391 280.868C500.681 284.068 502.985 286.756 505.95 288.519C499.764 290.528 494.537 294.75 491.272 300.375C491.112 300.639 491.027 300.941 491.027 301.25C491.027 301.559 491.112 301.861 491.272 302.125C491.422 302.393 491.641 302.616 491.906 302.77C492.172 302.924 492.474 303.004 492.781 303H535.219C535.526 303.004 535.828 302.924 536.094 302.77C536.359 302.616 536.579 302.393 536.728 302.125C536.889 301.861 536.973 301.559 536.973 301.25C536.973 300.941 536.889 300.639 536.728 300.375Z" fill="white"/>
<rect x="431" y="376" width="166" height="56" rx="28" fill="white"/>
<path d="M455.816 399.6H457.436V403.068H461.156V399.6H462.776V408H461.156V404.424H457.436V408H455.816V399.6ZM466.278 399.6H467.898V404.904C467.898 405.296 467.978 405.628 468.138 405.9C468.298 406.164 468.514 406.364 468.786 406.5C469.066 406.636 469.386 406.704 469.746 406.704C470.114 406.704 470.438 406.636 470.718 406.5C470.998 406.364 471.218 406.164 471.378 405.9C471.538 405.628 471.618 405.296 471.618 404.904V399.6H473.238V404.82C473.238 405.372 473.142 405.852 472.95 406.26C472.758 406.668 472.494 407.008 472.158 407.28C471.83 407.552 471.454 407.756 471.03 407.892C470.614 408.02 470.178 408.084 469.722 408.084C469.114 408.084 468.546 407.964 468.018 407.724C467.498 407.484 467.078 407.124 466.758 406.644C466.438 406.164 466.278 405.556 466.278 404.82V399.6ZM478.374 408H476.754V399.6H478.602L481.278 405.888L483.954 399.6H485.802V408H484.182V402.576L481.914 408H480.642L478.374 402.576V408ZM493.189 400.956H492.757L490.285 408H488.617L491.629 399.6H494.305L497.317 408H495.649L493.189 400.956ZM490.441 404.712H495.337V406.068H490.441V404.712ZM507.089 399.6V408H505.433L501.761 402.168V408H500.141V399.6H501.785L505.469 405.432V399.6H507.089ZM515.922 399.6H517.542V403.068H521.262V399.6H522.882V408H521.262V404.424H517.542V408H515.922V399.6ZM532.336 400.956H528.052V403.092H531.256V404.4H528.052V406.644H532.336V408H526.432V399.6H532.336V400.956ZM539.493 400.956H539.061L536.589 408H534.921L537.933 399.6H540.609L543.621 408H541.953L539.493 400.956ZM536.745 404.712H541.641V406.068H536.745V404.712ZM548.064 399.6V406.644H551.808V408H546.444V399.6H548.064ZM554.401 399.6H561.217V400.956H558.625V408H557.005V400.956H554.401V399.6ZM564.346 399.6H565.966V403.068H569.686V399.6H571.306V408H569.686V404.424H565.966V408H564.346V399.6Z" fill="#04225E"/>
<defs>
<linearGradient id="paint0_linear_1_520" x1="74" y1="5" x2="958" y2="5" gradientUnits="userSpaceOnUse">
<stop stop-color="#22A7F6"/>
<stop offset="1" stop-color="#36C994"/>
</linearGradient>
<linearGradient id="paint1_linear_1_520" x1="298" y1="85" x2="733" y2="85" gradientUnits="userSpaceOnUse">
<stop stop-color="#22A7F6"/>
<stop offset="1" stop-color="#36C994"/>
</linearGradient>
<linearGradient id="paint2_linear_1_520" x1="22" y1="46" x2="147" y2="46" gradientUnits="userSpaceOnUse">
<stop stop-color="#22A7F6"/>
<stop offset="1" stop-color="#36C994"/>
</linearGradient>
<linearGradient id="paint3_linear_1_520" x1="892" y1="46" x2="1017" y2="46" gradientUnits="userSpaceOnUse">
<stop stop-color="#22A7F6"/>
<stop offset="1" stop-color="#36C994"/>
</linearGradient>
<linearGradient id="paint4_linear_1_520" x1="451" y1="219" x2="576" y2="219" gradientUnits="userSpaceOnUse">
<stop stop-color="#22A7F6"/>
<stop offset="1" stop-color="#36C994"/>
</linearGradient>
</defs>
</svg>
