<svg width="379" height="693" viewBox="0 0 379 693" fill="none" xmlns="http://www.w3.org/2000/svg">
<rect x="41" y="73" width="293" height="504" rx="146.5" stroke="url(#paint0_linear_1_1712)" stroke-width="9"/>
<path d="M150.379 319.336C147.979 319.336 145.739 318.92 143.659 318.088C141.579 317.256 139.755 316.088 138.187 314.584C136.619 313.048 135.387 311.24 134.491 309.16C133.595 307.048 133.147 304.728 133.147 302.2C133.147 299.672 133.595 297.368 134.491 295.288C135.387 293.176 136.619 291.368 138.187 289.864C139.755 288.328 141.579 287.144 143.659 286.312C145.739 285.48 147.979 285.064 150.379 285.064C152.747 285.064 154.971 285.48 157.051 286.312C159.163 287.144 160.987 288.328 162.523 289.864C164.091 291.368 165.323 293.176 166.219 295.288C167.115 297.368 167.563 299.672 167.563 302.2C167.563 304.728 167.115 307.048 166.219 309.16C165.323 311.24 164.091 313.048 162.523 314.584C160.955 316.088 159.131 317.256 157.051 318.088C154.971 318.92 152.747 319.336 150.379 319.336ZM150.379 313C152.267 313 153.931 312.552 155.371 311.656C156.843 310.728 157.979 309.448 158.779 307.816C159.611 306.184 160.027 304.312 160.027 302.2C160.027 300.056 159.611 298.184 158.779 296.584C157.979 294.952 156.843 293.688 155.371 292.792C153.931 291.864 152.267 291.4 150.379 291.4C148.427 291.4 146.731 291.864 145.291 292.792C143.851 293.688 142.715 294.952 141.883 296.584C141.083 298.184 140.683 300.056 140.683 302.2C140.683 304.312 141.083 306.184 141.883 307.816C142.715 309.448 143.851 310.728 145.291 311.656C146.731 312.552 148.427 313 150.379 313ZM199.546 285.4V319H192.058L178.426 297.16V319H170.986V285.4H178.522L192.106 307.336V285.4H199.546ZM228.864 291.592H211.872V299.032H224.592V304.936H211.872V312.808H228.864V319H204.432V285.4H228.864V291.592ZM102.269 338.4H106.109V353.232H124.109V338.4H127.949V372H124.109V356.592H106.109V372H102.269V338.4ZM157.185 341.76H138.993V353.232H152.673V356.592H138.993V368.64H157.185V372H135.153V338.4H157.185V341.76ZM176.355 341.76H174.771L163.683 372H159.795L172.083 338.4H178.995L191.235 372H187.347L176.355 341.76ZM165.795 359.808H185.379V363.168H165.795V359.808ZM198.573 338.4V368.64H214.269V372H194.733V338.4H198.573ZM216.694 338.4H241.894V341.76H231.238V372H227.398V341.76H216.694V338.4ZM247.047 338.4H250.887V353.232H268.887V338.4H272.727V372H268.887V356.592H250.887V372H247.047V338.4Z" fill="url(#paint1_linear_1_1712)"/>
<circle opacity="0.1" cx="188.5" cy="78.5" r="78.5" fill="white"/>
<circle cx="188.5" cy="78.5" r="62.5" fill="url(#paint2_linear_1_1712)"/>
<path d="M212.5 74.625C212.5 75.8364 212.141 77.0206 211.468 78.0279C210.795 79.0351 209.838 79.8202 208.719 80.2838C207.6 80.7473 206.368 80.8686 205.18 80.6323C203.992 80.396 202.901 79.8126 202.044 78.956C201.187 78.0994 200.604 77.0081 200.368 75.8199C200.131 74.6318 200.253 73.4003 200.716 72.2811C201.18 71.1619 201.965 70.2053 202.972 69.5323C203.979 68.8592 205.164 68.5 206.375 68.5C207.998 68.5058 209.552 69.1529 210.7 70.3003C211.847 71.4478 212.494 73.0023 212.5 74.625ZM175.75 74.625C175.75 73.4136 175.391 72.2294 174.718 71.2221C174.045 70.2149 173.088 69.4298 171.969 68.9662C170.85 68.5027 169.618 68.3814 168.43 68.6177C167.242 68.854 166.151 69.4374 165.294 70.294C164.437 71.1506 163.854 72.2419 163.618 73.4301C163.381 74.6182 163.503 75.8497 163.966 76.9689C164.43 78.0881 165.215 79.0447 166.222 79.7178C167.229 80.3908 168.414 80.75 169.625 80.75C171.248 80.7442 172.802 80.0971 173.95 78.9497C175.097 77.8022 175.744 76.2477 175.75 74.625ZM180.125 70.25C181.336 70.25 182.521 69.8908 183.528 69.2178C184.535 68.5447 185.32 67.5881 185.784 66.4689C186.247 65.3497 186.369 64.1182 186.132 62.9301C185.896 61.7419 185.313 60.6506 184.456 59.794C183.599 58.9374 182.508 58.354 181.32 58.1177C180.132 57.8814 178.9 58.0027 177.781 58.4662C176.662 58.9298 175.705 59.7149 175.032 60.7221C174.359 61.7294 174 62.9136 174 64.125C174.006 65.7477 174.653 67.3022 175.8 68.4497C176.948 69.5971 178.502 70.2442 180.125 70.25ZM195.875 70.25C197.086 70.25 198.271 69.8908 199.278 69.2178C200.285 68.5447 201.07 67.5881 201.534 66.4689C201.997 65.3497 202.119 64.1182 201.882 62.9301C201.646 61.7419 201.063 60.6506 200.206 59.794C199.349 58.9374 198.258 58.354 197.07 58.1177C195.882 57.8814 194.65 58.0027 193.531 58.4662C192.412 58.9298 191.455 59.7149 190.782 60.7221C190.109 61.7294 189.75 62.9136 189.75 64.125C189.756 65.7477 190.403 67.3022 191.55 68.4497C192.698 69.5971 194.252 70.2442 195.875 70.25ZM200.928 83.55C200.039 83.0613 199.255 82.4021 198.62 81.6101C197.986 80.8181 197.514 79.9089 197.231 78.9344C196.657 76.9298 195.445 75.1667 193.78 73.9116C192.114 72.6566 190.085 71.9778 188 71.9778C185.915 71.9778 183.886 72.6566 182.221 73.9116C180.555 75.1667 179.343 76.9298 178.769 78.9344C178.199 80.8965 176.878 82.5548 175.094 83.55C173.38 84.4751 172.023 85.9456 171.24 87.7286C170.456 89.5116 170.289 91.5051 170.766 93.3934C171.243 95.2817 172.337 96.9569 173.874 98.1536C175.41 99.3503 177.302 100 179.25 100C180.414 99.9989 181.566 99.7684 182.641 99.3219C186.064 97.9038 189.909 97.8959 193.338 99.3C194.416 99.762 195.577 100 196.75 100C198.7 100.005 200.595 99.3587 202.135 98.1637C203.676 96.9688 204.773 95.2936 205.253 93.404C205.733 91.5145 205.568 89.5188 204.784 87.7336C204.001 85.9484 202.644 84.476 200.928 83.55Z" fill="white"/>
<rect x="104" y="173" width="169" height="56" rx="28" fill="white"/>
<path d="M132.656 197.956H132.224L129.752 205H128.084L131.096 196.6H133.772L136.784 205H135.116L132.656 197.956ZM129.908 201.712H134.804V203.068H129.908V201.712ZM146.555 196.6V205H144.899L141.227 199.168V205H139.607V196.6H141.251L144.935 202.432V196.6H146.555ZM150.105 196.6H151.725V205H150.105V196.6ZM156.903 205H155.283V196.6H157.131L159.807 202.888L162.483 196.6H164.331V205H162.711V199.576L160.443 205H159.171L156.903 199.576V205ZM171.719 197.956H171.287L168.815 205H167.147L170.159 196.6H172.835L175.847 205H174.179L171.719 197.956ZM168.971 201.712H173.867V203.068H168.971V201.712ZM180.29 196.6V203.644H184.034V205H178.67V196.6H180.29ZM192.318 196.6H193.938V200.068H197.658V196.6H199.278V205H197.658V201.424H193.938V205H192.318V196.6ZM208.732 197.956H204.448V200.092H207.652V201.4H204.448V203.644H208.732V205H202.828V196.6H208.732V197.956ZM215.889 197.956H215.457L212.985 205H211.317L214.329 196.6H217.005L220.017 205H218.349L215.889 197.956ZM213.141 201.712H218.037V203.068H213.141V201.712ZM224.46 196.6V203.644H228.204V205H222.84V196.6H224.46ZM230.798 196.6H237.614V197.956H235.022V205H233.402V197.956H230.798V196.6ZM240.743 196.6H242.363V200.068H246.083V196.6H247.703V205H246.083V201.424H242.363V205H240.743V196.6Z" fill="#04225E"/>
<circle opacity="0.1" cx="297.5" cy="538.5" r="78.5" fill="white"/>
<circle cx="297.5" cy="538.5" r="62.5" fill="url(#paint3_linear_1_1712)"/>
<path d="M317.35 551.656C317.227 551.91 317.035 552.123 316.796 552.272C316.557 552.421 316.281 552.5 316 552.5H299.5V560C299.5 560.398 299.342 560.779 299.061 561.061C298.779 561.342 298.398 561.5 298 561.5C297.602 561.5 297.221 561.342 296.939 561.061C296.658 560.779 296.5 560.398 296.5 560V552.5H280C279.72 552.499 279.445 552.42 279.208 552.271C278.971 552.122 278.78 551.91 278.657 551.658C278.534 551.407 278.484 551.125 278.512 550.847C278.541 550.568 278.647 550.303 278.819 550.081L287.425 539H283C282.72 538.999 282.445 538.92 282.208 538.771C281.971 538.622 281.78 538.41 281.657 538.158C281.534 537.907 281.484 537.625 281.512 537.347C281.541 537.068 281.647 536.803 281.819 536.581L296.819 517.081C296.959 516.902 297.138 516.757 297.343 516.657C297.548 516.558 297.772 516.506 298 516.506C298.228 516.506 298.452 516.558 298.657 516.657C298.862 516.757 299.041 516.902 299.181 517.081L314.181 536.581C314.353 536.803 314.459 537.068 314.488 537.347C314.516 537.625 314.466 537.907 314.343 538.158C314.22 538.41 314.029 538.622 313.792 538.771C313.554 538.92 313.28 538.999 313 539H308.575L317.181 550.081C317.353 550.302 317.461 550.566 317.49 550.845C317.52 551.123 317.472 551.404 317.35 551.656Z" fill="white"/>
<rect x="216" y="633" width="163" height="60" rx="30" fill="white"/>
<path d="M246.82 652.956H242.536V655.092H245.74V656.4H242.536V658.644H246.82V660H240.916V651.6H246.82V652.956ZM257.085 651.6V660H255.429L251.757 654.168V660H250.137V651.6H251.781L255.465 657.432V651.6H257.085ZM266.479 651.6H268.207L265.123 660H263.167L260.095 651.6H261.823L264.151 658.344L266.479 651.6ZM271.215 651.6H272.835V660H271.215V651.6ZM281.205 654.192C281.205 653.816 281.089 653.516 280.857 653.292C280.633 653.068 280.281 652.956 279.801 652.956H278.013V655.44H279.801C280.121 655.44 280.385 655.392 280.593 655.296C280.801 655.192 280.953 655.048 281.049 654.864C281.153 654.672 281.205 654.448 281.205 654.192ZM279.849 651.6C280.529 651.6 281.089 651.72 281.529 651.96C281.977 652.192 282.309 652.508 282.525 652.908C282.749 653.3 282.861 653.728 282.861 654.192C282.861 654.504 282.805 654.816 282.693 655.128C282.581 655.432 282.405 655.712 282.165 655.968C281.925 656.216 281.613 656.416 281.229 656.568C280.853 656.72 280.393 656.796 279.849 656.796H278.013V660H276.393V651.6H279.849ZM280.761 656.256L283.029 660H281.217L279.045 656.256H280.761ZM290.064 660.084C289.472 660.084 288.916 659.98 288.396 659.772C287.876 659.564 287.42 659.272 287.028 658.896C286.644 658.512 286.34 658.06 286.116 657.54C285.892 657.012 285.78 656.432 285.78 655.8C285.78 655.168 285.892 654.592 286.116 654.072C286.34 653.552 286.644 653.1 287.028 652.716C287.42 652.332 287.876 652.036 288.396 651.828C288.916 651.62 289.472 651.516 290.064 651.516C290.664 651.516 291.22 651.62 291.732 651.828C292.252 652.036 292.708 652.332 293.1 652.716C293.492 653.1 293.796 653.552 294.012 654.072C294.236 654.592 294.348 655.168 294.348 655.8C294.348 656.432 294.236 657.012 294.012 657.54C293.796 658.06 293.492 658.512 293.1 658.896C292.708 659.272 292.252 659.564 291.732 659.772C291.22 659.98 290.664 660.084 290.064 660.084ZM290.076 658.704C290.58 658.704 291.028 658.584 291.42 658.344C291.82 658.096 292.132 657.756 292.356 657.324C292.588 656.892 292.704 656.384 292.704 655.8C292.704 655.216 292.588 654.708 292.356 654.276C292.132 653.844 291.82 653.508 291.42 653.268C291.028 653.02 290.58 652.896 290.076 652.896C289.556 652.896 289.096 653.02 288.696 653.268C288.304 653.508 287.996 653.844 287.772 654.276C287.548 654.708 287.436 655.216 287.436 655.8C287.436 656.376 287.548 656.884 287.772 657.324C287.996 657.764 288.304 658.104 288.696 658.344C289.096 658.584 289.556 658.704 290.076 658.704ZM299.103 660H297.483V651.6H299.331L302.007 657.888L304.683 651.6H306.531V660H304.911V654.576L302.643 660H301.371L299.103 654.576V660ZM315.983 652.956H311.699V655.092H314.903V656.4H311.699V658.644H315.983V660H310.079V651.6H315.983V652.956ZM326.248 651.6V660H324.592L320.92 654.168V660H319.3V651.6H320.944L324.628 657.432V651.6H326.248ZM329.39 651.6H336.206V652.956H333.614V660H331.994V652.956H329.39V651.6ZM342.319 652.956H341.887L339.415 660H337.747L340.759 651.6H343.435L346.447 660H344.779L342.319 652.956ZM339.571 656.712H344.467V658.068H339.571V656.712ZM350.891 651.6V658.644H354.635V660H349.271V651.6H350.891ZM269.809 665.6H271.429V669.068H275.149V665.6H276.769V674H275.149V670.424H271.429V674H269.809V665.6ZM286.223 666.956H281.939V669.092H285.143V670.4H281.939V672.644H286.223V674H280.319V665.6H286.223V666.956ZM293.38 666.956H292.948L290.476 674H288.808L291.82 665.6H294.496L297.508 674H295.84L293.38 666.956ZM290.632 670.712H295.528V672.068H290.632V670.712ZM301.951 665.6V672.644H305.695V674H300.331V665.6H301.951ZM308.288 665.6H315.104V666.956H312.512V674H310.892V666.956H308.288V665.6ZM318.233 665.6H319.853V669.068H323.573V665.6H325.193V674H323.573V670.424H319.853V674H318.233V665.6Z" fill="#04225E"/>
<circle opacity="0.1" cx="83" cy="542.5" r="78.5" fill="white"/>
<circle cx="82.5" cy="542.5" r="62.5" fill="url(#paint4_linear_1_1712)"/>
<path d="M105.728 561.375C102.463 555.75 97.236 551.528 91.05 549.519C94.0151 547.756 96.3193 545.068 97.6086 541.868C98.8979 538.668 99.101 535.134 98.1867 531.807C97.2724 528.481 95.2913 525.547 92.5477 523.455C89.8041 521.364 86.4497 520.231 83 520.231C79.5502 520.231 76.1959 521.364 73.4523 523.455C70.7086 525.547 68.7275 528.481 67.8132 531.807C66.8989 535.134 67.102 538.668 68.3913 541.868C69.6806 545.068 71.9849 547.756 74.95 549.519C68.7639 551.528 63.5372 555.75 60.2718 561.375C60.1115 561.639 60.0267 561.941 60.0267 562.25C60.0267 562.559 60.1115 562.861 60.2718 563.125C60.4214 563.393 60.6406 563.616 60.9062 563.77C61.1719 563.924 61.4742 564.004 61.7812 564H104.219C104.526 564.004 104.828 563.924 105.094 563.77C105.359 563.616 105.579 563.393 105.728 563.125C105.888 562.861 105.973 562.559 105.973 562.25C105.973 561.941 105.888 561.639 105.728 561.375Z" fill="white"/>
<rect y="637" width="166" height="56" rx="28" fill="white"/>
<path d="M24.816 660.6H26.436V664.068H30.156V660.6H31.776V669H30.156V665.424H26.436V669H24.816V660.6ZM35.2778 660.6H36.8978V665.904C36.8978 666.296 36.9778 666.628 37.1378 666.9C37.2978 667.164 37.5138 667.364 37.7858 667.5C38.0658 667.636 38.3858 667.704 38.7458 667.704C39.1138 667.704 39.4378 667.636 39.7178 667.5C39.9978 667.364 40.2178 667.164 40.3778 666.9C40.5378 666.628 40.6178 666.296 40.6178 665.904V660.6H42.2378V665.82C42.2378 666.372 42.1418 666.852 41.9498 667.26C41.7578 667.668 41.4938 668.008 41.1578 668.28C40.8298 668.552 40.4538 668.756 40.0298 668.892C39.6138 669.02 39.1778 669.084 38.7218 669.084C38.1138 669.084 37.5458 668.964 37.0178 668.724C36.4978 668.484 36.0778 668.124 35.7578 667.644C35.4378 667.164 35.2778 666.556 35.2778 665.82V660.6ZM47.3737 669H45.7537V660.6H47.6017L50.2777 666.888L52.9537 660.6H54.8017V669H53.1817V663.576L50.9137 669H49.6417L47.3737 663.576V669ZM62.1894 661.956H61.7574L59.2854 669H57.6174L60.6294 660.6H63.3054L66.3174 669H64.6494L62.1894 661.956ZM59.4414 665.712H64.3374V667.068H59.4414V665.712ZM76.0885 660.6V669H74.4325L70.7605 663.168V669H69.1405V660.6H70.7845L74.4685 666.432V660.6H76.0885ZM84.9219 660.6H86.5419V664.068H90.2619V660.6H91.8819V669H90.2619V665.424H86.5419V669H84.9219V660.6ZM101.336 661.956H97.0518V664.092H100.256V665.4H97.0518V667.644H101.336V669H95.4318V660.6H101.336V661.956ZM108.493 661.956H108.061L105.589 669H103.921L106.933 660.6H109.609L112.621 669H110.953L108.493 661.956ZM105.745 665.712H110.641V667.068H105.745V665.712ZM117.064 660.6V667.644H120.808V669H115.444V660.6H117.064ZM123.401 660.6H130.217V661.956H127.625V669H126.005V661.956H123.401V660.6ZM133.346 660.6H134.966V664.068H138.686V660.6H140.306V669H138.686V665.424H134.966V669H133.346V660.6Z" fill="#04225E"/>
<defs>
<linearGradient id="paint0_linear_1_1712" x1="41" y1="73" x2="334" y2="73" gradientUnits="userSpaceOnUse">
<stop stop-color="#22A7F6"/>
<stop offset="1" stop-color="#36C994"/>
</linearGradient>
<linearGradient id="paint1_linear_1_1712" x1="98" y1="276" x2="277" y2="276" gradientUnits="userSpaceOnUse">
<stop stop-color="#22A7F6"/>
<stop offset="1" stop-color="#36C994"/>
</linearGradient>
<linearGradient id="paint2_linear_1_1712" x1="126" y1="16" x2="251" y2="16" gradientUnits="userSpaceOnUse">
<stop stop-color="#22A7F6"/>
<stop offset="1" stop-color="#36C994"/>
</linearGradient>
<linearGradient id="paint3_linear_1_1712" x1="235" y1="476" x2="360" y2="476" gradientUnits="userSpaceOnUse">
<stop stop-color="#22A7F6"/>
<stop offset="1" stop-color="#36C994"/>
</linearGradient>
<linearGradient id="paint4_linear_1_1712" x1="20" y1="480" x2="145" y2="480" gradientUnits="userSpaceOnUse">
<stop stop-color="#22A7F6"/>
<stop offset="1" stop-color="#36C994"/>
</linearGradient>
</defs>
</svg>
