<svg width="234" height="109" viewBox="0 0 234 109" fill="none" xmlns="http://www.w3.org/2000/svg">
<g clip-path="url(#clip0_1_450)">
<path d="M73.2757 3.40039H66.124V35.8763H73.2757V3.40039Z" fill="white"/>
<path d="M92.6207 14.3037C89.807 14.3037 87.5794 15.5934 86.1725 17.352V14.7727H79.0208V35.7589H86.1725V25.3244C86.1725 22.5106 87.9311 20.0485 90.1587 20.0485C92.3863 20.0485 93.3242 21.3382 93.3242 23.9175V35.8761H100.476V23.9175C100.476 18.1727 98.2483 14.3037 92.6207 14.3037Z" fill="white"/>
<path d="M138.697 3.40039C136.352 3.40039 134.476 5.27625 134.476 7.62108C134.476 9.84867 136.352 11.8418 138.697 11.8418C141.041 11.8418 142.917 9.96591 142.917 7.62108C142.917 5.15901 140.924 3.40039 138.697 3.40039Z" fill="white"/>
<path d="M142.214 14.7725H135.062V35.7587H142.214V14.7725Z" fill="white"/>
<path d="M164.724 17.352C162.848 15.1244 160.152 14.3037 157.572 14.3037C151.593 14.3037 147.138 19.4623 147.138 25.3244C147.138 31.1865 151.593 36.3451 157.572 36.3451C160.269 36.3451 163.317 35.5244 164.724 33.2968V35.8761H171.876V14.7727H164.724V17.352ZM159.683 30.6003C156.869 30.6003 154.641 28.1382 154.641 25.3244C154.641 22.5106 156.752 20.0485 159.683 20.0485C162.614 20.0485 164.724 22.5106 164.724 25.3244C164.724 28.021 162.497 30.6003 159.683 30.6003Z" fill="white"/>
<path d="M191.103 14.3037C188.29 14.3037 186.062 15.5934 184.655 17.352V14.7727H177.503V35.7589H184.655V25.3244C184.655 22.5106 186.414 20.0485 188.641 20.0485C190.869 20.0485 191.807 21.3382 191.807 23.9175V35.8761H198.959V23.9175C199.076 18.1727 196.731 14.3037 191.103 14.3037Z" fill="white"/>
<path d="M121.931 15.4759C119.821 14.069 117.124 13.3655 114.428 13.7172C108.448 14.5379 104.11 20.0483 104.931 26.1448C105.635 31.6552 110.441 35.6414 115.835 35.6414C116.303 35.6414 116.772 35.6414 117.359 35.5241C119 35.2897 120.641 34.7034 121.931 33.7655V35.6414H129.083V0H121.931V15.4759ZM120.641 34C120.641 33.8828 120.641 33.8828 120.524 33.7655C120.407 33.4138 119.938 33.1793 119.469 33.2966C119 33.4138 118.883 33.8828 119 34.3517C119 34.469 119.117 34.469 119.117 34.5862C118.766 34.7034 118.297 34.8207 117.828 34.9379C117.828 34.8207 117.828 34.8207 117.828 34.7034C117.71 34.2345 117.359 34 116.89 34C116.421 34.1172 116.186 34.469 116.186 34.9379C116.186 35.0552 116.186 35.0552 116.303 35.1724C115.952 35.1724 115.6 35.1724 115.248 35.1724C115.248 35.0552 115.248 35.0552 115.366 34.9379C115.366 34.469 115.131 34.1172 114.662 34.1172C114.193 34.1172 113.841 34.3517 113.841 34.8207C113.841 34.9379 113.841 34.9379 113.841 35.0552C113.372 34.9379 113.021 34.8207 112.552 34.7034C112.552 34.5862 112.669 34.5862 112.669 34.469C112.786 34.1172 112.669 33.6483 112.2 33.4138C111.848 33.2966 111.379 33.4138 111.145 33.8828C111.145 34 111.145 34 111.145 34.1172C110.793 34 110.441 33.7655 110.09 33.531C110.207 33.531 110.207 33.4138 110.207 33.4138C110.441 33.0621 110.324 32.5931 110.09 32.3586C109.738 32.1241 109.269 32.2414 109.035 32.4759C109.035 32.5931 108.917 32.5931 108.917 32.7103C108.566 32.4759 108.331 32.1241 107.979 31.7724C108.097 31.7724 108.097 31.6552 108.214 31.6552C108.566 31.4207 108.566 30.9517 108.331 30.6C108.097 30.2483 107.628 30.2483 107.276 30.4828C107.159 30.4828 107.159 30.6 107.159 30.6C106.924 30.2483 106.69 29.8966 106.455 29.5448C106.572 29.5448 106.572 29.5448 106.69 29.4276C107.041 29.3103 107.276 28.8414 107.159 28.3724C107.041 28.0207 106.572 27.7862 106.103 27.9034C105.986 27.9034 105.986 28.0207 105.869 28.0207C105.752 27.669 105.635 27.2 105.517 26.731C105.635 26.731 105.635 26.731 105.752 26.731C106.221 26.6138 106.455 26.2621 106.455 25.7931C106.338 25.3241 105.986 25.0897 105.517 25.0897C105.4 25.0897 105.4 25.0897 105.283 25.2069C105.283 24.8552 105.283 24.5034 105.283 24.1517C105.4 24.1517 105.4 24.1517 105.517 24.269C105.986 24.269 106.338 24.0345 106.338 23.5655C106.338 23.0966 106.103 22.7448 105.635 22.7448C105.517 22.7448 105.517 22.7448 105.4 22.7448C105.517 22.2759 105.635 21.9241 105.752 21.4552C105.869 21.4552 105.869 21.5724 105.986 21.5724C106.338 21.6897 106.807 21.5724 107.041 21.1034C107.159 20.7517 107.041 20.2828 106.572 20.0483C106.455 20.0483 106.455 20.0483 106.338 20.0483C106.455 19.6966 106.69 19.3448 106.924 18.9931C106.924 19.1103 107.041 19.1103 107.041 19.1103C107.393 19.3448 107.862 19.2276 108.097 18.9931C108.331 18.6414 108.214 18.1724 107.979 17.9379C107.862 17.9379 107.862 17.8207 107.745 17.8207C107.979 17.469 108.331 17.2345 108.683 16.8828C108.683 17 108.8 17 108.8 17.1172C109.035 17.469 109.503 17.469 109.855 17.2345C110.207 17 110.207 16.531 109.972 16.1793C109.972 16.0621 109.855 16.0621 109.855 16.0621C110.207 15.8276 110.559 15.5931 110.91 15.3586C110.91 15.4759 110.91 15.4759 111.028 15.5931C111.145 15.9448 111.614 16.1793 112.083 16.0621C112.435 15.9448 112.669 15.4759 112.552 15.0069C112.552 14.8897 112.435 14.8897 112.435 14.7724C112.786 14.6552 113.255 14.5379 113.724 14.4207C113.724 14.5379 113.724 14.5379 113.724 14.6552C113.841 15.1241 114.193 15.3586 114.662 15.3586C115.131 15.2414 115.366 14.8897 115.366 14.4207C115.366 14.3034 115.366 14.3034 115.248 14.1862C115.483 14.1862 115.717 14.1862 115.952 14.1862C116.069 14.1862 116.186 14.1862 116.303 14.1862C116.303 14.3034 116.303 14.3034 116.186 14.4207C116.186 14.8897 116.421 15.2414 116.89 15.2414C117.359 15.2414 117.71 15.0069 117.71 14.5379C117.71 14.4207 117.71 14.4207 117.71 14.3034C118.179 14.4207 118.531 14.5379 119 14.6552C119 14.7724 118.883 14.7724 118.883 14.8897C118.766 15.2414 118.883 15.7103 119.352 15.9448C119.821 16.1793 120.172 15.9448 120.407 15.4759C120.407 15.3586 120.407 15.3586 120.524 15.2414C120.876 15.3586 121.228 15.5931 121.579 15.8276C121.462 15.8276 121.462 15.9448 121.462 15.9448C121.228 16.2966 121.345 16.7655 121.579 17C121.931 17.2345 122.4 17.1172 122.635 16.8828L122.752 16.7655C122.986 17 123.103 17.1172 123.338 17.3517C122.869 17.8207 122.283 18.1724 121.814 18.6414C121.345 19.1103 120.759 19.5793 120.29 19.931C119.821 20.2828 119.235 20.869 118.883 21.3379C118.648 21.5724 118.414 21.8069 118.179 22.1586C118.062 22.2759 117.945 22.3931 117.828 22.6276C117.71 22.7448 117.593 22.8621 117.593 23.0966C117.71 22.9793 117.945 22.9793 118.062 22.8621C118.179 22.7448 118.297 22.6276 118.531 22.5103C118.766 22.2759 119 22.0414 119.352 21.8069C119.821 21.3379 120.29 20.869 120.759 20.4C121.228 19.931 121.697 19.3448 122.048 18.8759C122.517 18.4069 122.986 17.8207 123.338 17.3517C123.455 17.469 123.572 17.5862 123.69 17.7034C123.69 17.7034 123.572 17.7034 123.572 17.8207C123.221 18.0552 123.221 18.5241 123.455 18.8759C123.69 19.2276 124.159 19.2276 124.51 18.9931C124.51 18.9931 124.51 18.9931 124.628 18.8759C124.745 19.1103 124.862 19.2276 124.979 19.4621C124.393 19.6966 123.807 20.0483 123.221 20.2828C122.635 20.6345 121.931 20.869 121.345 21.2207C120.759 21.5724 120.172 21.9241 119.586 22.2759C119.352 22.5103 119 22.6276 118.766 22.8621C118.648 22.9793 118.531 23.0966 118.414 23.2138C118.297 23.331 118.179 23.4483 118.062 23.5655C118.179 23.5655 118.414 23.4483 118.531 23.4483C118.648 23.4483 118.883 23.331 119 23.2138C119.352 23.0966 119.586 22.9793 119.938 22.7448C120.524 22.3931 121.11 22.0414 121.697 21.6897C122.283 21.3379 122.869 20.869 123.338 20.5172C123.924 20.1655 124.393 19.8138 124.979 19.4621C125.097 19.5793 125.097 19.8138 125.214 19.931H125.097C124.745 20.0483 124.51 20.5172 124.628 20.9862C124.745 21.3379 125.214 21.5724 125.683 21.4552H125.8C125.917 21.6897 125.917 21.8069 125.917 22.0414C125.214 22.1586 124.628 22.2759 124.041 22.3931C123.338 22.5103 122.752 22.6276 122.048 22.8621C121.345 22.9793 120.759 23.2138 120.055 23.331C119.703 23.4483 119.352 23.5655 119.117 23.6828C119 23.8 118.766 23.8 118.648 23.9172C118.531 24.0345 118.297 24.0345 118.179 24.1517C118.297 24.1517 118.531 24.1517 118.648 24.1517C118.766 24.1517 119 24.1517 119.117 24.0345C119.469 24.0345 119.821 23.9172 120.172 23.8C120.876 23.6828 121.462 23.4483 122.166 23.2138C122.869 22.9793 123.455 22.7448 124.041 22.5103C124.628 22.2759 125.331 22.0414 125.917 21.8069C125.917 22.0414 126.035 22.1586 126.035 22.3931H125.917C125.448 22.5103 125.214 22.8621 125.214 23.331C125.331 23.8 125.683 24.0345 126.152 24.0345H126.269C126.269 24.269 126.269 24.3862 126.269 24.6207C125.566 24.5034 124.979 24.5034 124.276 24.5034C123.572 24.5034 122.869 24.3862 122.283 24.3862C121.579 24.3862 120.876 24.3862 120.29 24.3862C119.938 24.3862 119.586 24.3862 119.235 24.5034C119.117 24.5034 118.883 24.5034 118.766 24.6207C118.648 24.6207 118.414 24.7379 118.297 24.7379C118.414 24.7379 118.648 24.8552 118.766 24.8552C118.883 24.8552 119.117 24.9724 119.235 24.9724C119.586 24.9724 119.938 25.0897 120.29 25.0897C120.993 25.0897 121.697 25.0897 122.283 25.0897C122.986 25.0897 123.69 24.9724 124.276 24.9724C124.979 24.9724 125.566 24.8552 126.269 24.8552C126.269 24.9724 126.269 25.0897 126.269 25.2069C126.152 25.2069 126.152 25.2069 126.152 25.2069C125.683 25.2069 125.331 25.4414 125.331 25.9103C125.331 26.3793 125.566 26.731 126.035 26.731C126.152 26.731 126.152 26.731 126.269 26.731C126.152 27.2 126.035 27.5517 125.917 28.0207C125.8 28.0207 125.8 27.9034 125.683 27.9034C125.331 27.7862 124.862 27.9035 124.628 28.3724C124.393 28.8414 124.628 29.1931 125.097 29.4276C125.214 29.4276 125.214 29.4276 125.331 29.4276C125.214 29.7793 124.979 30.131 124.745 30.4828C124.745 30.3655 124.628 30.3655 124.628 30.3655C124.276 30.131 123.807 30.2483 123.572 30.4828C123.338 30.8345 123.455 31.3034 123.69 31.5379C123.807 31.5379 123.807 31.6552 123.924 31.6552C123.69 32.0069 123.338 32.2414 122.986 32.5931C122.986 32.4759 122.869 32.4759 122.869 32.3586C122.635 32.0069 122.166 32.0069 121.814 32.2414C121.462 32.4759 121.462 32.9448 121.697 33.2966C121.697 33.4138 121.814 33.4138 121.814 33.4138C121.345 33.531 120.993 33.7655 120.641 34Z" fill="white"/>
<path d="M116.186 26.7314C117.359 26.6141 118.062 25.559 117.945 24.3865C117.828 23.2141 116.772 22.5107 115.6 22.6279C114.428 22.7452 113.724 23.8003 113.841 24.9728C113.959 26.1452 115.014 26.9659 116.186 26.7314Z" fill="white"/>
<path d="M115.717 22.0415C115.717 22.1588 115.835 22.3933 115.835 22.5105C115.835 22.3933 115.952 22.1588 115.952 22.0415C115.952 21.9243 116.069 21.6898 116.069 21.5726C116.069 21.2208 116.186 20.8691 116.186 20.5174C116.186 19.8139 116.186 19.1105 116.186 18.5243C116.186 17.8208 116.069 17.1174 116.069 16.5312C116.069 15.8277 115.952 15.1243 115.952 14.5381C115.835 15.2415 115.835 15.945 115.835 16.5312C115.835 17.1174 115.717 17.9381 115.717 18.5243C115.717 19.2277 115.717 19.9312 115.717 20.5174C115.717 20.8691 115.717 21.2208 115.835 21.5726C115.717 21.6898 115.717 21.9243 115.717 22.0415Z" fill="white"/>
<path d="M116.069 27.4348C116.069 27.3175 115.952 27.0831 115.952 26.9658C115.952 27.0831 115.835 27.3175 115.835 27.4348C115.835 27.552 115.717 27.7865 115.717 27.9038C115.717 28.2555 115.6 28.6072 115.6 28.9589C115.6 29.6624 115.6 30.3658 115.6 30.952C115.6 31.6555 115.717 32.3589 115.717 32.9451C115.717 33.6486 115.835 34.352 115.835 34.9382C115.952 34.2348 115.952 33.5313 115.952 32.9451C115.952 32.3589 116.069 31.5382 116.069 30.952C116.069 30.2486 116.069 29.5451 116.069 28.9589C116.069 28.6072 116.069 28.2555 115.952 27.9038C116.069 27.6693 116.069 27.552 116.069 27.4348Z" fill="white"/>
<path d="M109.621 24.972C110.324 24.972 111.028 24.972 111.614 24.972C111.966 24.972 112.317 24.972 112.669 24.8548C112.786 24.8548 113.021 24.8548 113.138 24.7375C113.255 24.7375 113.49 24.6203 113.607 24.6203C113.49 24.6203 113.255 24.503 113.138 24.503C113.021 24.503 112.786 24.3858 112.669 24.3858C112.317 24.3858 111.966 24.2686 111.614 24.2686C110.91 24.2686 110.207 24.2686 109.621 24.2686C108.917 24.2686 108.214 24.3858 107.628 24.3858C106.924 24.3858 106.221 24.503 105.517 24.503C106.221 24.6203 106.924 24.6203 107.628 24.6203C108.331 24.972 109.035 24.972 109.621 24.972Z" fill="white"/>
<path d="M111.262 20.517C111.731 20.986 112.2 21.5722 112.669 21.9239C112.904 22.1584 113.138 22.3929 113.49 22.6274C113.607 22.7446 113.724 22.8619 113.959 22.9791C114.076 23.0963 114.193 23.2136 114.428 23.2136C114.31 23.0963 114.31 22.8619 114.193 22.7446C114.076 22.6274 113.959 22.5101 113.841 22.2756C113.607 22.0412 113.373 21.8067 113.138 21.455C112.669 20.986 112.2 20.517 111.731 20.0481C111.262 19.5791 110.676 19.1101 110.207 18.7584C109.738 18.2894 109.152 17.8205 108.683 17.4688C109.152 17.9377 109.621 18.5239 109.973 18.9929C110.441 19.4619 110.793 20.0481 111.262 20.517Z" fill="white"/>
<path d="M120.524 28.9583C120.055 28.4893 119.586 27.9031 119.117 27.5514C118.883 27.3169 118.648 27.0824 118.297 26.8479C118.179 26.7307 118.062 26.6134 117.828 26.4962C117.71 26.379 117.593 26.2617 117.359 26.2617C117.476 26.379 117.476 26.6134 117.593 26.7307C117.71 26.8479 117.828 26.9652 117.945 27.1997C118.179 27.4341 118.414 27.6686 118.648 28.0203C119.117 28.4893 119.586 28.9583 120.055 29.4272C120.524 29.8962 121.11 30.3652 121.579 30.7169C122.048 31.1859 122.635 31.6548 123.103 32.0065C122.635 31.5376 122.166 30.9514 121.814 30.4824C121.462 30.0134 120.993 29.4272 120.524 28.9583Z" fill="white"/>
<path d="M113.138 27.9032C113.373 27.6687 113.607 27.4342 113.841 27.0825C113.959 26.9652 114.076 26.848 114.193 26.6135C114.31 26.4963 114.428 26.379 114.428 26.1445C114.31 26.2618 114.076 26.2618 113.959 26.379C113.841 26.4963 113.724 26.6135 113.49 26.7307C113.255 26.9652 113.021 27.1997 112.669 27.4342C112.2 27.9032 111.731 28.3721 111.262 28.8411C110.793 29.31 110.324 29.8963 109.973 30.3652C109.621 30.8342 109.035 31.4204 108.683 31.8894C109.152 31.4204 109.738 30.9514 110.207 30.5997C110.676 30.1307 111.262 29.6618 111.731 29.31C112.2 28.8411 112.669 28.3721 113.138 27.9032Z" fill="white"/>
<path d="M113.959 18.7586C114.076 19.4621 114.31 20.0483 114.428 20.7517C114.545 21.1034 114.662 21.4552 114.779 21.6896C114.897 21.8069 114.897 22.0414 115.014 22.1586C115.131 22.2759 115.131 22.5103 115.248 22.6276C115.248 22.5103 115.248 22.2759 115.248 22.1586C115.248 22.0414 115.248 21.8069 115.131 21.6896C115.131 21.3379 115.014 20.9862 114.897 20.6345C114.779 19.931 114.545 19.3448 114.31 18.6414C114.076 17.9379 113.841 17.3517 113.607 16.7655C113.373 16.0621 113.138 15.4759 112.904 14.8896C113.021 15.5931 113.138 16.1793 113.255 16.8828C113.724 17.469 113.841 18.1724 113.959 18.7586Z" fill="white"/>
<path d="M117.827 30.7176C117.71 30.0142 117.476 29.4279 117.359 28.7245C117.241 28.3728 117.124 28.021 117.007 27.7866C116.89 27.6693 116.89 27.4348 116.772 27.3176C116.655 27.2004 116.655 26.9659 116.538 26.8486C116.538 26.9659 116.538 27.2004 116.538 27.3176C116.538 27.4348 116.538 27.6693 116.655 27.7866C116.655 28.1383 116.772 28.49 116.89 28.8417C117.007 29.5452 117.241 30.1314 117.476 30.8348C117.71 31.5383 117.945 32.1245 118.179 32.7107C118.414 33.4142 118.648 34.0004 118.883 34.5866C118.765 33.8831 118.648 33.2969 118.531 32.5935C118.062 32.0073 117.945 31.3038 117.827 30.7176Z" fill="white"/>
<path d="M109.972 26.6139C110.676 26.4966 111.262 26.2621 111.966 26.1449C112.317 26.0277 112.669 25.9104 112.904 25.7932C113.021 25.6759 113.255 25.6759 113.372 25.5587C113.49 25.4415 113.724 25.4415 113.841 25.3242C113.724 25.3242 113.49 25.3242 113.372 25.3242C113.255 25.3242 113.021 25.3242 112.904 25.4415C112.552 25.4415 112.2 25.5587 111.848 25.6759C111.145 25.7932 110.559 26.0277 109.855 26.2621C109.152 26.4966 108.566 26.7311 107.979 26.9656C107.276 27.2001 106.69 27.4346 106.104 27.669C106.807 27.5518 107.393 27.4346 108.097 27.3173C108.566 26.8484 109.269 26.7311 109.972 26.6139Z" fill="white"/>
<path d="M110.324 21.9239C110.91 22.2757 111.496 22.6274 112.083 22.9791C112.434 23.0963 112.669 23.3308 113.021 23.4481C113.138 23.5653 113.372 23.5653 113.49 23.6825C113.607 23.7998 113.841 23.7998 113.959 23.7998C113.841 23.6825 113.724 23.5653 113.607 23.4481C113.49 23.3308 113.372 23.2136 113.255 23.0963C113.021 22.8619 112.669 22.7446 112.434 22.5101C111.848 22.1584 111.262 21.8067 110.676 21.455C110.09 21.1032 109.386 20.8688 108.8 20.517C108.214 20.1653 107.628 19.9308 106.924 19.5791C107.51 19.9308 108.096 20.3998 108.565 20.7515C109.269 21.1032 109.738 21.455 110.324 21.9239Z" fill="white"/>
<path d="M117.71 25.793C117.828 25.9102 117.945 26.0275 118.062 26.1447C118.179 26.2619 118.297 26.3792 118.414 26.4964C118.648 26.7309 119 26.8481 119.235 27.0826C119.821 27.4343 120.407 27.7861 120.993 28.1378C121.579 28.4895 122.283 28.724 122.869 29.0757C123.455 29.4275 124.041 29.6619 124.745 30.0137C124.159 29.6619 123.573 29.193 123.104 28.8412C122.517 28.4895 121.931 28.1378 121.345 27.6688C120.759 27.1999 120.173 26.9654 119.586 26.6137C119.235 26.4964 119 26.2619 118.648 26.1447C118.531 26.0275 118.297 26.0275 118.179 25.9102C118.062 25.793 117.945 25.793 117.71 25.793Z" fill="white"/>
<path d="M114.545 27.5522C114.662 27.4349 114.662 27.2005 114.779 27.0832C114.896 26.966 114.896 26.7315 114.896 26.6143C114.779 26.7315 114.662 26.8487 114.545 26.966C114.428 27.0832 114.31 27.2005 114.193 27.3177C113.959 27.5522 113.841 27.9039 113.607 28.1384C113.255 28.7246 112.903 29.3108 112.552 29.897C112.2 30.4832 111.965 31.1867 111.614 31.7729C111.262 32.3591 111.028 32.9453 110.676 33.6487C111.028 33.0625 111.496 32.4763 111.848 32.0074C112.2 31.4212 112.552 30.8349 113.021 30.2487C113.49 29.6625 113.724 29.0763 114.076 28.4901C114.193 28.2556 114.428 27.9039 114.545 27.5522Z" fill="white"/>
<path d="M117.241 21.9237C117.124 22.0409 117.124 22.2754 117.007 22.3927C116.89 22.5099 116.89 22.7444 116.89 22.8616C117.007 22.7444 117.124 22.6271 117.241 22.5099C117.359 22.3927 117.476 22.2754 117.593 22.1582C117.828 21.9237 117.945 21.572 118.179 21.3375C118.531 20.7513 118.883 20.1651 119.234 19.5789C119.586 18.9927 119.821 18.2892 120.172 17.703C120.524 17.1168 120.759 16.5306 121.11 15.8271C120.759 16.4134 120.29 16.9996 119.938 17.4685C119.586 18.0547 119.234 18.6409 118.766 19.2271C118.297 19.8134 118.062 20.3996 117.71 20.9858C117.593 21.2203 117.359 21.572 117.241 21.9237Z" fill="white"/>
<path d="M112.552 19.4616C112.903 20.0478 113.255 20.634 113.607 21.2203C113.841 21.4547 113.959 21.8065 114.193 22.0409C114.31 22.1582 114.428 22.2754 114.545 22.3927C114.662 22.5099 114.779 22.6271 114.896 22.7444C114.896 22.6271 114.779 22.3927 114.779 22.2754C114.779 22.1582 114.662 21.9237 114.545 21.8065C114.428 21.4547 114.31 21.2203 114.076 20.8685C113.724 20.2823 113.372 19.6961 113.021 19.1099C112.669 18.5237 112.2 17.9375 111.848 17.4685C111.496 16.8823 111.145 16.2961 110.676 15.8271C110.91 16.4134 111.262 17.1168 111.614 17.703C111.848 18.2892 112.2 18.8754 112.552 19.4616Z" fill="white"/>
<path d="M119.234 30.0142C118.883 29.428 118.531 28.8418 118.179 28.2556C117.945 28.0211 117.828 27.6694 117.593 27.4349C117.476 27.3177 117.359 27.2004 117.241 27.0832C117.124 26.9659 117.007 26.8487 116.89 26.7314C116.89 26.8487 117.007 27.0832 117.007 27.2004C117.007 27.3177 117.124 27.5521 117.241 27.6694C117.359 28.0211 117.476 28.2556 117.71 28.6073C118.062 29.1935 118.414 29.7797 118.766 30.3659C119.117 30.9521 119.586 31.5383 119.938 32.0073C120.29 32.5935 120.641 33.1797 121.11 33.6487C120.876 33.0625 120.524 32.359 120.172 31.7728C119.938 31.1866 119.586 30.6004 119.234 30.0142Z" fill="white"/>
<path d="M110.676 28.1378C111.262 27.7861 111.848 27.4343 112.434 27.0826C112.669 26.8481 113.021 26.7309 113.255 26.4964C113.372 26.3792 113.49 26.2619 113.607 26.1447C113.724 26.0275 113.841 25.9102 113.958 25.793C113.841 25.793 113.607 25.9102 113.49 25.9102C113.372 25.9102 113.138 26.0275 113.021 26.1447C112.669 26.2619 112.434 26.3792 112.083 26.6137C111.496 26.9654 110.91 27.3171 110.324 27.6688C109.738 28.0206 109.152 28.4895 108.683 28.8412C108.096 29.193 107.51 29.5447 107.041 30.0137C107.627 29.7792 108.331 29.4275 108.917 29.0757C109.386 28.724 110.09 28.4895 110.676 28.1378Z" fill="white"/>
<path d="M109.855 23.4479C110.559 23.6823 111.145 23.7996 111.848 24.0341C112.2 24.1513 112.552 24.1513 112.904 24.1513C113.021 24.1513 113.255 24.1513 113.373 24.1513C113.49 24.1513 113.724 24.1513 113.841 24.1513C113.724 24.0341 113.49 24.0341 113.373 23.9168C113.255 23.7996 113.021 23.7996 112.904 23.6823C112.552 23.5651 112.2 23.4479 111.966 23.3306C111.262 23.0961 110.676 22.9789 109.973 22.8617C109.269 22.7444 108.683 22.6272 107.979 22.5099C107.276 22.3927 106.69 22.2754 105.986 22.1582C106.69 22.3927 107.276 22.6272 107.979 22.8617C108.448 22.9789 109.152 23.2134 109.855 23.4479Z" fill="white"/>
<path d="M118.883 25.7932C119.235 25.9105 119.586 26.0277 119.821 26.145C120.524 26.3794 121.11 26.4967 121.814 26.6139C122.517 26.7312 123.103 26.8484 123.807 26.9657C124.51 27.0829 125.097 27.2001 125.8 27.3174C125.097 27.0829 124.51 26.8484 123.807 26.6139C123.103 26.3794 122.517 26.145 121.814 25.9105C121.11 25.676 120.524 25.5588 119.821 25.3243C119.469 25.207 119.117 25.207 118.766 25.207C118.648 25.207 118.414 25.207 118.297 25.207C118.179 25.207 117.945 25.207 117.828 25.207C117.945 25.3243 118.179 25.3243 118.297 25.4415C118.648 25.5588 118.766 25.676 118.883 25.7932Z" fill="white"/>
<path d="M115.131 27.3177C115.014 27.4349 115.014 27.6694 114.896 27.7866C114.779 28.1383 114.662 28.4901 114.545 28.7245C114.31 29.428 114.193 30.0142 114.076 30.7177C113.959 31.4211 113.841 32.0073 113.724 32.7108C113.607 33.4142 113.49 34.0004 113.372 34.7039C113.607 34.0004 113.841 33.4142 114.076 32.7108C114.31 32.0073 114.545 31.4211 114.779 30.7177C115.014 30.0142 115.131 29.428 115.365 28.7245C115.483 28.3728 115.483 28.0211 115.483 27.6694C115.483 27.5521 115.483 27.3177 115.483 27.2004C115.483 27.0832 115.483 26.8487 115.483 26.7314C115.248 26.9659 115.131 27.0832 115.131 27.3177Z" fill="white"/>
<path d="M116.655 22.1587C116.772 22.0414 116.772 21.8069 116.89 21.6897C117.007 21.338 117.124 20.9863 117.241 20.7518C117.476 20.0483 117.593 19.4621 117.71 18.7587C117.828 18.0552 117.945 17.469 118.062 16.7656C118.179 16.0621 118.297 15.4759 118.414 14.7725C118.179 15.4759 117.945 16.0621 117.71 16.7656C117.476 17.469 117.241 18.0552 117.007 18.7587C116.772 19.4621 116.655 20.0483 116.421 20.7518C116.303 21.1035 116.303 21.4552 116.303 21.8069C116.303 21.9242 116.303 22.1587 116.303 22.2759C116.303 22.3932 116.303 22.6276 116.303 22.7449C116.538 22.5104 116.655 22.3931 116.655 22.1587Z" fill="white"/>
<path d="M77.4965 61.9035C77.3793 61.9035 77.3793 61.7862 77.3793 61.7862V52.6414H69.2896V61.7862C69.2896 61.9035 69.1724 61.9035 69.1724 61.9035H66.0069C65.8896 61.9035 65.8896 61.7862 65.8896 61.7862V40.4483C65.8896 40.3311 66.0069 40.3311 66.0069 40.3311H69.1724C69.2896 40.3311 69.2896 40.4483 69.2896 40.4483V49.3586H77.3793V40.4483C77.3793 40.3311 77.4965 40.3311 77.4965 40.3311H80.6621C80.7793 40.3311 80.7793 40.4483 80.7793 40.4483V61.669C80.7793 61.7862 80.6621 61.7862 80.6621 61.7862H77.4965V61.9035Z" fill="white"/>
<path d="M96.9586 55.3382C96.9586 55.4554 96.8414 55.4554 96.8414 55.4554H87.6966C87.6966 56.5106 88.0483 57.3313 88.6345 57.9175C89.338 58.5037 90.1586 58.8554 91.0966 58.8554C92.269 58.8554 93.3242 58.3865 94.2621 57.4485H94.3793H94.4966L96.7242 59.3244L96.8414 59.4416V59.5589C96.0207 60.4968 95.2 61.083 94.2621 61.4347C93.3242 61.7865 92.269 62.0209 91.2138 62.0209C89.5724 62.0209 88.0483 61.552 86.6414 60.4968C85.1173 59.4416 84.4138 57.3313 84.4138 54.1658C84.4138 51.2347 85.1173 49.1244 86.5242 47.952C87.9311 46.7796 89.338 46.1934 90.8621 46.1934C92.5035 46.1934 94.0276 46.7796 95.3173 47.952C96.6069 49.1244 97.1931 50.7658 97.1931 52.6416L96.9586 55.3382ZM93.6759 52.6416C93.5586 51.5865 93.3242 50.883 92.7379 50.2968C92.1517 49.8278 91.4483 49.4761 90.6276 49.4761C89.8069 49.4761 89.1035 49.7106 88.5173 50.2968C88.2828 50.5313 88.0483 50.883 87.9311 51.2347C87.8138 51.5865 87.6966 52.0554 87.6966 52.5244L93.6759 52.6416Z" fill="white"/>
<path d="M108.331 61.9031C108.214 61.9031 108.214 61.7858 108.214 61.7858V60.9652C108.096 61.0824 107.979 61.3169 107.745 61.4341C107.51 61.5514 107.393 61.6686 107.159 61.7858C106.807 61.9031 106.455 62.0203 106.103 62.0203C105.634 62.1376 105.283 62.1376 104.814 62.1376C103.172 62.1376 101.765 61.6686 100.945 60.7307C100.007 59.7927 99.5378 58.7376 99.5378 57.3307C99.5378 56.041 100.007 54.9858 100.827 54.0479C101.648 53.11 102.938 52.7583 104.462 52.641H108.331V51.2341C108.331 50.0617 107.393 49.3583 105.517 49.4755C105.165 49.4755 104.814 49.4755 104.579 49.4755C104.345 49.4755 104.11 49.5927 103.876 49.5927C103.641 49.71 103.524 49.8272 103.407 49.9445C103.29 50.0617 103.172 50.2962 103.055 50.4134C102.938 50.5307 102.938 50.5307 102.821 50.4134L100.476 48.5376L100.359 48.4203V48.3031C101.531 46.779 103.172 45.9583 105.4 46.0755C106.338 46.0755 107.159 46.1927 107.862 46.31C108.565 46.4272 109.269 46.779 109.855 47.1307C111.027 47.9514 111.614 49.241 111.614 51.1169V61.4341C111.614 61.5514 111.496 61.5514 111.496 61.5514L108.331 61.9031ZM108.214 55.5721H104.814C103.172 55.5721 102.469 56.1583 102.469 57.2134C102.469 57.6824 102.703 58.0341 103.055 58.3858C103.524 58.7376 104.11 58.9721 105.048 58.9721C106.221 58.9721 107.159 58.8548 107.51 58.5031C107.979 58.2686 108.096 57.5652 108.096 56.51V55.5721H108.214Z" fill="white"/>
<path d="M114.779 40.5655C114.779 40.4482 114.897 40.4482 114.897 40.4482H117.945C118.062 40.4482 118.062 40.5655 118.062 40.5655V57.8C118.062 58.3862 118.414 58.7379 119 58.7379H120.055C120.172 58.7379 120.172 58.8551 120.172 58.8551V61.6689C120.172 61.7862 120.055 61.7862 120.055 61.7862H118.766C117.71 61.7862 116.655 61.5517 115.952 60.9655C115.131 60.3793 114.779 59.4413 114.779 58.0345V40.5655Z" fill="white"/>
<path d="M122.869 61.9032C122.752 61.9032 122.752 61.7859 122.752 61.7859V49.1239H121.462C121.345 49.1239 121.345 49.0066 121.345 49.0066V46.6618C121.345 46.5446 121.462 46.5446 121.462 46.5446H122.752V44.317L125.8 41.0342C125.917 40.917 125.917 40.917 126.034 41.0342C126.152 41.0342 126.152 41.1515 126.152 41.1515V46.5446H128.145C128.262 46.5446 128.262 46.6618 128.262 46.6618V49.0066C128.262 49.1239 128.145 49.1239 128.145 49.1239H126.152V61.6687C126.152 61.7859 126.034 61.7859 126.034 61.7859L122.869 61.9032Z" fill="white"/>
<path d="M131.193 61.9034C131.076 61.9034 131.076 61.7861 131.076 61.7861V40.6827C131.076 40.5654 131.193 40.5654 131.193 40.5654H134.241C134.359 40.5654 134.359 40.6827 134.359 40.6827V47.9516C135.297 46.8965 136.586 46.4275 138.11 46.4275C138.697 46.4275 139.283 46.5447 139.869 46.7792C140.455 47.0137 141.041 47.3654 141.628 47.8344C142.8 48.7723 143.269 50.062 143.269 51.8206V61.7861C143.269 61.9034 143.269 61.9034 143.152 61.9034H140.104C139.986 61.9034 139.986 61.7861 139.986 61.7861V52.7585C139.986 51.8206 139.752 50.9999 139.166 50.5309C138.579 50.062 137.993 49.7103 137.172 49.7103C136.352 49.7103 135.648 49.9447 135.179 50.5309C134.593 50.9999 134.359 51.8206 134.359 52.7585V61.6689C134.359 61.7861 134.359 61.7861 134.241 61.7861L131.193 61.9034Z" fill="white"/>
<path d="M158.628 59.0899V59.2071V59.3243C158.276 59.6761 157.924 60.0278 157.572 60.3795C157.221 60.7312 156.752 60.9657 156.283 61.2002C155.814 61.4347 155.345 61.6692 154.759 61.7864C154.172 61.9037 153.703 62.0209 153.117 62.0209C151.359 62.0209 149.717 61.4347 148.31 60.2623C146.903 59.0899 146.083 56.9795 146.083 54.1657C146.083 51.3519 146.786 49.3588 148.31 48.1864C149.717 47.014 151.359 46.3105 153.117 46.3105C153.703 46.3105 154.29 46.4278 154.759 46.545C155.228 46.6623 155.814 46.8968 156.283 47.1312C156.752 47.3657 157.221 47.6002 157.572 47.9519C157.924 48.3037 158.393 48.6554 158.628 49.0071V49.1243V49.2416L156.4 51.2347C156.4 51.2347 156.283 51.3519 156.283 51.2347C156.283 51.2347 156.166 51.2347 156.166 51.1174C155.345 50.0623 154.407 49.5933 153.234 49.5933C150.772 49.5933 149.483 51.1174 149.483 54.0485C149.483 57.0968 150.772 58.5037 153.234 58.5037C154.407 58.5037 155.345 58.0347 156.166 56.9795C156.166 56.9795 156.166 56.9795 156.283 56.8623H156.4L158.628 59.0899Z" fill="white"/>
<path d="M168.945 61.9031C168.828 61.9031 168.828 61.7858 168.828 61.7858V60.9652C168.71 61.0824 168.593 61.3169 168.359 61.4341C168.124 61.5514 168.007 61.6686 167.772 61.7858C167.421 61.9031 167.069 62.0203 166.717 62.0203C166.365 62.0203 165.779 62.1376 165.31 62.1376C163.552 62.1376 162.379 61.6686 161.441 60.7307C160.503 59.7927 160.034 58.7376 160.034 57.3307C160.034 56.041 160.503 54.9858 161.324 54.0479C162.145 53.11 163.434 52.7583 164.959 52.641H168.828V51.2341C168.828 50.0617 167.89 49.3583 166.014 49.4755C165.662 49.4755 165.31 49.4755 165.076 49.4755C164.841 49.4755 164.49 49.5927 164.372 49.5927C164.138 49.71 164.021 49.8272 163.786 49.9445C163.669 50.0617 163.552 50.2962 163.434 50.4134C163.317 50.5307 163.317 50.5307 163.2 50.4134L160.855 48.5376L160.738 48.4203V48.3031C161.91 46.779 163.552 45.9583 165.779 46.0755C166.717 46.0755 167.538 46.1927 168.241 46.31C168.945 46.4272 169.648 46.779 170.234 47.1307C171.407 47.9514 171.993 49.241 171.993 51.1169V61.4341C171.993 61.5514 171.993 61.5514 171.876 61.5514L168.945 61.9031ZM168.71 55.5721H165.31C163.669 55.5721 162.965 56.1583 162.965 57.2134C162.965 57.6824 163.2 58.0341 163.552 58.3858C164.021 58.7376 164.607 58.9721 165.545 58.9721C166.717 58.9721 167.655 58.8548 168.007 58.5031C168.476 58.2686 168.593 57.5652 168.593 56.51V55.5721H168.71Z" fill="white"/>
<path d="M175.51 61.9036C175.393 61.9036 175.393 61.7864 175.393 61.7864V46.6623C175.393 46.545 175.393 46.545 175.51 46.545H178.559C178.676 46.545 178.676 46.6623 178.676 46.6623V47.8347C179.614 46.7795 180.903 46.3105 182.428 46.3105C183.6 46.3105 184.655 46.6623 185.71 47.483C185.71 47.483 185.71 47.6002 185.828 47.6002V47.7174L183.6 50.2968C183.483 50.414 183.483 50.414 183.365 50.2968C182.779 49.8278 182.076 49.5933 181.49 49.5933C180.786 49.5933 180.2 49.8278 179.614 50.2968C179.028 50.7657 178.793 51.5864 178.793 52.5243V61.5519C178.793 61.6692 178.793 61.6692 178.676 61.6692L175.51 61.9036Z" fill="white"/>
<path d="M199.076 55.3382C199.076 55.4554 199.076 55.4554 198.959 55.4554H189.814C189.814 56.5106 190.165 57.3313 190.752 57.9175C191.455 58.5037 192.276 58.8554 193.214 58.8554C194.386 58.8554 195.441 58.3865 196.379 57.4485C196.379 57.4485 196.379 57.4485 196.497 57.4485C196.614 57.4485 196.614 57.4485 196.614 57.4485L198.841 59.3244V59.4416V59.5589C198.021 60.4968 197.2 61.083 196.262 61.4347C195.324 61.7865 194.269 62.0209 193.331 62.0209C191.69 62.0209 190.165 61.552 188.759 60.4968C187.234 59.4416 186.531 57.3313 186.531 54.1658C186.531 51.2347 187.234 49.1244 188.641 47.952C190.048 46.7796 191.455 46.1934 192.979 46.1934C194.738 46.1934 196.145 46.7796 197.434 47.952C198.724 49.1244 199.31 50.7658 199.31 52.6416L199.076 55.3382ZM195.676 52.6416C195.559 51.5865 195.324 50.883 194.738 50.2968C194.152 49.8278 193.565 49.4761 192.628 49.4761C191.807 49.4761 191.103 49.7106 190.517 50.2968C190.283 50.5313 190.048 50.883 189.931 51.2347C189.814 51.5865 189.697 52.0554 189.697 52.5244L195.676 52.6416Z" fill="white"/>
<g clip-path="url(#clip1_1_450)">
<path d="M58.9028 49.0655C58.9028 46.1647 57.9399 45.1978 55.018 45.1645C49.7055 45.1311 44.4262 45.0978 39.1136 45.0645C39.0804 48.332 39.0472 51.5995 38.9808 54.8337C38.9476 55.8339 39.4789 57.2676 38.5824 57.7678C37.9515 58.1345 37.1878 56.7342 36.391 56.2674C35.9261 56.0006 35.4945 55.6339 34.9964 55.3671C34.6644 55.1671 34.3324 54.967 33.9339 55.2338C30.4144 57.4677 27.0276 59.8016 24.6702 63.3359C22.7444 65.5698 21.5823 68.2038 20.7522 71.0045C20.1877 74.1387 19.8557 77.3062 19.6565 80.507C20.1213 82.2741 21.1838 83.241 23.0764 83.241C27.3597 83.241 31.6761 83.2744 35.9593 83.2077C38.0179 83.1744 39.0804 82.0407 39.1136 79.9735C39.1136 77.7063 39.0804 75.439 39.0472 73.1718C39.1136 70.9045 39.2132 68.6372 39.2464 66.37C39.2796 64.0694 39.2464 64.0694 41.4711 64.0694C46.0531 64.0694 50.6352 64.0361 55.2504 64.0361C57.8735 64.0361 58.936 62.9358 58.936 60.2684C58.9028 56.5008 58.9028 52.7998 58.9028 49.0655Z" fill="url(#paint0_linear_1_450)"/>
<path d="M22.8107 25.8594C20.7853 25.8927 19.756 27.1597 19.756 29.2269L19.8556 43.4973C19.922 44.7643 19.3908 45.0977 18.1954 45.0977C13.2813 45.0644 8.33405 45.0644 3.41996 45.0977C1.02932 45.0977 -0.0331819 46.298 2.13921e-05 48.7653V61.4025C0.531274 63.2363 1.46097 64.0026 3.48637 64.0026C6.74029 64.0026 9.96101 63.4358 13.0489 62.3689C18.5275 60.4684 23.1759 57.3676 26.8947 52.8331C29.2521 50.6658 29.2521 50.6658 27.1935 48.4319C26.7951 47.9985 26.3967 47.5317 25.9982 47.0649C25.6662 46.6981 25.0353 46.3981 25.2345 45.8979C25.467 45.3311 26.1642 45.4978 26.6955 45.4645C30.8127 45.3311 34.9631 45.5645 39.0803 45.0977C39.0803 44.5608 39.0505 44.0538 39.0192 43.5201L39.0139 43.4306V42.397V41.5301C39.0471 37.3624 39.1135 33.228 39.1135 29.0602C39.0803 26.9597 38.217 25.9594 36.0588 25.8927C31.6428 25.7594 27.2267 25.7594 22.8107 25.8594Z" fill="url(#paint1_linear_1_450)"/>
<path d="M39.0803 45.0645C39.0803 45.0978 39.0803 45.0978 39.0803 45.0645C39.0803 45.0978 39.0803 45.0978 39.0803 45.0645C39.0803 45.0978 39.0803 45.0978 39.0803 45.0645C39.0803 45.0978 39.0803 45.0978 39.0803 45.0645C39.1135 45.0978 39.1135 45.0978 39.0803 45.0645Z" fill="#61D97E"/>
</g>
<path d="M63.8965 86.5239H66.8275L68.7034 81.8343H75.6206L77.4965 86.5239H80.4275L72.1034 66.3584L63.8965 86.5239ZM74.6827 79.2549H69.7586L72.2206 73.0412L74.6827 79.2549Z" fill="white"/>
<path d="M89.455 74.5656C88.8688 74.3311 88.1654 74.2139 87.3447 74.2139C86.4068 74.2139 85.7033 74.4484 84.9999 74.9173C84.7654 75.0346 84.5309 75.269 84.2964 75.5035V74.4484H81.5999V86.6415H84.2964V81.4828C84.2964 80.1932 84.5309 79.138 84.9999 78.3173C85.2343 77.9656 85.5861 77.6139 86.055 77.3794C86.4068 77.1449 86.993 77.0277 87.6964 77.0277C88.2826 77.0277 88.6343 77.2621 88.9861 77.6139C89.2205 78.0828 89.455 78.5518 89.455 79.2552V86.7587H92.1516V79.2552C92.1516 77.8483 91.7999 76.6759 90.9792 75.8552C90.5102 75.1518 90.0412 74.8001 89.455 74.5656Z" fill="white"/>
<path d="M103.524 75.6208C102.469 74.6828 101.179 74.2139 99.7723 74.2139C98.1309 74.2139 96.6068 74.8001 95.5516 76.0897C94.4964 77.3794 93.9102 78.7863 93.9102 80.4277C93.9102 82.069 94.4964 83.5932 95.5516 84.7656C96.724 86.0553 98.1309 86.6415 99.7723 86.6415C101.179 86.6415 102.469 86.1725 103.524 85.2346V86.5242C103.524 87.4622 103.172 88.2828 102.469 88.9863C101.765 89.6897 100.945 90.0415 100.007 90.0415C99.0688 90.0415 98.2481 89.6897 97.5447 88.9863C97.0757 88.5173 96.724 87.9311 96.6068 87.3449L96.4895 86.9932H93.793L93.9102 87.5794C94.1447 88.869 94.7309 90.0415 95.6688 90.9794C96.8412 92.1518 98.3654 92.8552 100.124 92.8552C101.883 92.8552 103.29 92.269 104.579 90.9794C105.752 89.807 106.455 88.2828 106.455 86.5242V74.4484H103.758V75.6208H103.524ZM102.469 77.9656C103.172 78.669 103.524 79.4897 103.524 80.5449C103.524 81.6001 103.172 82.3035 102.469 83.1242C101.765 83.9449 100.945 84.1794 100.007 84.1794C99.0688 84.1794 98.2481 83.8277 97.5447 83.1242C96.8412 82.4208 96.4895 81.6001 96.4895 80.5449C96.4895 79.607 96.8412 78.7863 97.5447 77.9656C98.2481 77.2621 99.0688 76.9104 100.007 76.9104C101.062 76.9104 101.883 77.2621 102.469 77.9656Z" fill="white"/>
<path d="M114.662 74.0967C112.903 74.0967 111.379 74.6829 110.207 75.9725C108.917 77.145 108.331 78.6691 108.331 80.4277C108.331 82.1863 108.917 83.7105 110.207 84.8829C110.793 85.4691 111.497 85.9381 112.2 86.1725C113.021 86.5243 113.841 86.6415 114.897 86.6415C115.952 86.6415 117.007 86.2898 118.062 85.5863C119.117 84.8829 119.821 84.0622 120.407 82.8898L120.641 82.1863H117.71L117.593 82.4208C117.241 82.8898 116.772 83.2415 116.303 83.476C115.834 83.7105 115.248 83.8277 114.662 83.8277C113.841 83.8277 113.021 83.5932 112.317 83.007C111.731 82.5381 111.379 82.0691 111.262 81.4829H120.993V80.076C120.993 78.4346 120.407 76.9105 119.117 75.7381C117.828 74.6829 116.421 74.0967 114.662 74.0967ZM114.662 76.7932C115.483 76.7932 116.186 77.0277 116.89 77.6139C117.359 78.0829 117.828 78.5519 118.062 79.1381H111.379C111.497 78.9036 111.614 78.7863 111.614 78.5519C112.434 77.3794 113.372 76.7932 114.662 76.7932Z" fill="white"/>
<path d="M125.683 66.4756H122.986V86.5239H125.683V66.4756Z" fill="white"/>
<path d="M135.179 79.8414C134.593 79.6069 134.124 79.3724 133.421 79.2552C132.834 79.1379 132.366 79.0207 131.897 78.9035C131.428 78.7862 131.076 78.5517 130.841 78.4345C130.724 78.3173 130.49 78.2 130.49 77.7311C130.49 77.3793 130.607 77.1448 130.841 77.0276C131.428 76.6759 132.6 76.6759 133.186 77.0276C133.421 77.1448 133.655 77.4966 133.772 77.9655L133.89 78.3173H136.703L136.586 77.7311C136.352 76.4414 135.766 75.6207 134.945 75.0345C134.124 74.5655 133.186 74.3311 132.014 74.3311C130.841 74.3311 129.786 74.6828 128.966 75.269C128.028 75.9724 127.559 76.9104 127.559 78.2C127.559 78.7862 127.676 79.3724 128.028 79.9586C128.379 80.4276 128.848 80.7793 129.552 81.131C130.138 81.3655 130.607 81.6 131.193 81.7173C131.779 81.8345 132.248 81.9517 132.717 82.1862C133.655 82.5379 134.124 82.8897 134.124 83.3586C134.124 83.9448 133.89 84.7655 132.131 84.7655C131.545 84.7655 131.076 84.6483 130.724 84.4138C130.372 84.1793 130.138 83.7104 129.903 83.1242L129.786 82.7724H126.972L127.09 83.3586C127.559 85.8207 129.2 87.2276 132.014 87.2276C132.6 87.2276 133.303 87.1104 133.772 86.9931C134.359 86.8759 134.828 86.6414 135.297 86.2897C136.234 85.5862 136.821 84.6483 136.821 83.2414C137.172 81.4828 136.469 80.4276 135.179 79.8414Z" fill="white"/>
<path d="M32.8277 103.055H31.3035L30.8345 105.4C30.7173 105.752 30.6001 105.986 30.4828 106.221C30.2483 106.338 30.1311 106.455 29.7794 106.455C29.5449 106.455 29.3104 106.338 29.1932 106.221C29.0759 106.103 29.0759 105.752 29.0759 105.4L30.2483 98.9517C30.3656 98.5999 30.4828 98.3654 30.6001 98.131C30.7173 97.8965 31.069 97.8965 31.4208 97.8965H33.6483C34.2346 97.8965 34.8208 97.8965 35.0552 98.0137C35.407 98.131 35.6414 98.2482 35.8759 98.4827C36.1104 98.7172 36.2277 98.9517 36.3449 99.3034C36.4621 99.6551 36.4621 100.007 36.3449 100.359C36.2277 101.179 35.7587 101.883 35.1725 102.352C34.5863 102.821 33.8828 103.055 32.8277 103.055ZM33.0621 99.1861H31.8897L31.4208 101.765H32.5932C32.9449 101.765 33.2966 101.765 33.6483 101.648C33.8828 101.531 34.1173 101.414 34.3518 101.179C34.469 100.945 34.5863 100.71 34.7035 100.476C34.8208 100.124 34.7035 99.7723 34.5863 99.5379C34.3518 99.3034 33.8828 99.1861 33.0621 99.1861Z" fill="white"/>
<path d="M42.676 103.29C42.5588 103.759 42.4415 104.227 42.207 104.579C41.9725 104.931 41.7381 105.283 41.3863 105.634C41.0346 105.869 40.6829 106.103 40.3312 106.338C39.9794 106.572 39.5105 106.572 39.0415 106.572C38.5725 106.572 38.1036 106.455 37.7519 106.338C37.4001 106.221 37.1656 105.986 36.9312 105.634C36.6967 105.4 36.5794 105.048 36.4622 104.579C36.345 104.227 36.345 103.759 36.4622 103.29C36.5794 102.821 36.6967 102.352 36.9312 102C37.1656 101.648 37.4001 101.296 37.7519 100.945C38.1036 100.71 38.4553 100.476 38.807 100.359C39.1587 100.241 39.6277 100.124 40.0967 100.124C40.5656 100.124 41.0346 100.241 41.3863 100.359C41.7381 100.476 42.0898 100.71 42.207 101.062C42.4415 101.296 42.5588 101.648 42.676 102.117C42.7932 102.352 42.7932 102.821 42.676 103.29ZM41.0346 103.29C41.1519 102.703 41.1519 102.117 40.9174 101.765C40.6829 101.414 40.3312 101.179 39.8622 101.179C39.5105 101.179 39.276 101.296 39.0415 101.414C38.807 101.531 38.5725 101.765 38.3381 102.117C38.1036 102.469 37.9863 102.821 37.9863 103.172C37.8691 103.524 37.8691 103.993 37.9863 104.227C38.1036 104.579 38.2208 104.814 38.3381 104.931C38.4553 105.048 38.807 105.165 39.1588 105.165C39.6277 105.165 40.0967 104.931 40.3312 104.579C40.8001 104.345 40.9174 103.876 41.0346 103.29Z" fill="white"/>
<path d="M45.2553 101.062L45.6071 104.579L47.1312 101.296C47.2484 100.945 47.3657 100.71 47.4829 100.593C47.6002 100.476 47.7174 100.359 47.8347 100.241C47.9519 100.124 48.1864 100.124 48.4209 100.124C48.6553 100.124 48.7726 100.124 48.8898 100.241C49.0071 100.359 49.1243 100.476 49.1243 100.593C49.1243 100.71 49.2415 100.945 49.2415 101.296L49.5933 104.579L51.2347 101.062C51.3519 100.828 51.4691 100.593 51.4691 100.476C51.5864 100.359 51.5864 100.241 51.7036 100.124C51.8209 100.007 51.9381 100.007 52.1726 100.007C52.4071 100.007 52.5243 100.124 52.6416 100.241C52.7588 100.359 52.7588 100.476 52.7588 100.71C52.7588 100.828 52.6415 101.062 52.4071 101.414L50.414 105.165C50.2967 105.517 50.1795 105.752 50.0622 105.869C49.945 105.986 49.8278 106.103 49.7105 106.221C49.5933 106.338 49.3588 106.338 49.1243 106.338C48.8898 106.338 48.6553 106.221 48.5381 106.103C48.4209 105.986 48.3036 105.869 48.3036 105.634C48.3036 105.517 48.1864 105.283 48.1864 104.931L48.0691 102.117L46.6622 105.165C46.4278 105.634 46.3105 105.869 46.076 106.103C45.8415 106.338 45.6071 106.455 45.3726 106.455C45.2553 106.455 45.0209 106.455 44.9036 106.338C44.7864 106.221 44.6691 106.221 44.6691 106.103C44.5519 105.986 44.5519 105.752 44.5519 105.634C44.5519 105.517 44.5519 105.283 44.4347 105.283L43.8484 101.531C43.7312 101.179 43.7312 100.945 43.7312 100.828C43.7312 100.71 43.8484 100.476 43.9657 100.359C44.0829 100.241 44.3174 100.124 44.5519 100.124C44.7864 100.124 45.0209 100.241 45.0209 100.359C45.1381 100.476 45.2553 100.71 45.2553 101.062Z" fill="white"/>
<path d="M57.5657 103.641H54.5174C54.4002 103.993 54.5174 104.345 54.5174 104.579C54.6346 104.814 54.7519 105.048 54.9864 105.166C55.2209 105.283 55.4553 105.4 55.6898 105.4C55.9243 105.4 56.0415 105.4 56.1588 105.283C56.276 105.283 56.5105 105.166 56.6278 105.048C56.745 104.931 56.9795 104.814 57.0967 104.697C57.214 104.579 57.4484 104.462 57.6829 104.228C57.8002 104.11 57.9174 104.11 58.0346 104.11C58.1519 104.11 58.2691 104.11 58.3864 104.228C58.5036 104.345 58.5036 104.462 58.5036 104.579C58.5036 104.697 58.3864 104.931 58.2691 105.048C58.1519 105.166 57.9174 105.4 57.6829 105.635C57.4484 105.869 57.0967 105.986 56.745 106.103C56.3933 106.221 56.0415 106.221 55.5726 106.221C54.5174 106.221 53.814 105.986 53.345 105.4C52.876 104.814 52.7588 104.11 52.876 103.055C52.9933 102.586 53.1105 102.117 53.345 101.766C53.5795 101.414 53.814 101.062 54.1657 100.71C54.5174 100.476 54.8691 100.241 55.2209 100.007C55.6898 99.8897 56.0415 99.7725 56.5105 99.7725C57.0967 99.7725 57.5657 99.8897 58.0346 100.124C58.3864 100.359 58.7381 100.71 58.8553 101.179C58.9726 101.531 59.0898 102 58.9726 102.469C58.8553 102.821 58.7381 103.172 58.5036 103.29C58.2691 103.641 57.9174 103.641 57.5657 103.641ZM54.6346 102.821H57.4484C57.4484 102.235 57.4484 101.883 57.214 101.648C56.9795 101.414 56.745 101.297 56.276 101.297C55.9243 101.297 55.5726 101.414 55.2209 101.648C54.9864 101.883 54.7519 102.235 54.6346 102.821Z" fill="white"/>
<path d="M61.6691 104.227L61.4346 105.517C61.4346 105.869 61.3173 106.103 61.0829 106.221C60.8484 106.338 60.7311 106.455 60.4967 106.455C60.2622 106.455 60.1449 106.338 60.0277 106.221C59.9105 106.103 59.7932 105.869 59.7932 105.517L60.6139 101.179C60.7311 100.476 61.0829 100.124 61.5518 100.124C61.7863 100.124 62.0208 100.241 62.0208 100.359C62.138 100.476 62.138 100.71 62.138 101.062C62.3725 100.71 62.607 100.476 62.8415 100.359C63.076 100.241 63.3105 100.124 63.6622 100.124C64.0139 100.124 64.2484 100.241 64.6001 100.359C64.8346 100.476 64.9518 100.71 64.9518 101.062C64.9518 101.296 64.8346 101.414 64.7173 101.531C64.6001 101.648 64.3656 101.765 64.2484 101.765C64.2484 101.765 64.0139 101.765 63.8967 101.648C63.6622 101.531 63.5449 101.531 63.3105 101.531C63.076 101.531 62.8415 101.648 62.7242 101.765C62.607 101.883 62.3725 102.117 62.2553 102.352C62.138 102.586 62.0208 102.821 61.9036 103.172C61.7863 103.524 61.6691 103.759 61.6691 104.227Z" fill="white"/>
<path d="M69.407 103.641H66.3587C66.3587 103.993 66.3587 104.345 66.3587 104.579C66.476 104.814 66.5932 105.048 66.8277 105.166C67.0622 105.283 67.2966 105.4 67.5311 105.4C67.7656 105.4 67.8829 105.4 68.0001 105.283C68.1173 105.283 68.3518 105.166 68.4691 105.048C68.5863 104.931 68.8208 104.814 68.938 104.697C69.0553 104.579 69.2898 104.462 69.5242 104.228C69.6415 104.11 69.7587 104.11 69.876 104.11C69.9932 104.11 70.1104 104.11 70.2277 104.228C70.3449 104.345 70.3449 104.462 70.3449 104.579C70.3449 104.697 70.2277 104.931 70.1104 105.048C69.9932 105.166 69.7587 105.4 69.5242 105.635C69.2898 105.869 68.938 105.986 68.5863 106.103C68.2346 106.221 67.8829 106.221 67.4139 106.221C66.3587 106.221 65.6553 105.986 65.1863 105.4C64.7173 104.814 64.6001 104.11 64.7173 103.055C64.8346 102.586 64.9518 102.117 65.1863 101.766C65.4208 101.414 65.6553 101.062 66.007 100.71C66.3587 100.476 66.7104 100.241 67.0622 100.007C67.5311 99.8897 67.8829 99.7725 68.3518 99.7725C68.938 99.7725 69.407 99.8897 69.876 100.124C70.3449 100.359 70.5794 100.71 70.6967 101.179C70.8139 101.531 70.9311 102 70.8139 102.469C70.6967 102.821 70.5794 103.172 70.3449 103.29C70.1104 103.641 69.7587 103.641 69.407 103.641ZM66.476 102.821H69.2898C69.2898 102.235 69.2898 101.883 69.0553 101.648C68.8208 101.414 68.5863 101.297 68.1173 101.297C67.7656 101.297 67.4139 101.414 67.0622 101.648C66.8277 101.883 66.5932 102.235 66.476 102.821Z" fill="white"/>
<path d="M75.9725 105.517V105.4C75.738 105.634 75.5035 105.869 75.269 105.986C75.0345 106.103 74.8 106.221 74.5656 106.338C74.3311 106.455 74.0966 106.455 73.7449 106.455C73.3931 106.455 73.0414 106.338 72.6897 106.221C72.338 106.103 72.2207 105.869 71.9862 105.517C71.7518 105.166 71.6345 104.931 71.6345 104.462C71.6345 103.993 71.6345 103.641 71.6345 103.172C71.7518 102.234 72.2207 101.414 72.8069 100.945C73.3931 100.359 74.0966 100.124 74.8 100.124C75.269 100.124 75.6207 100.241 75.8552 100.359C76.0897 100.476 76.4414 100.71 76.6759 101.062L77.0276 98.7172C77.0276 98.3655 77.1449 98.131 77.3794 98.0138C77.4966 97.8965 77.7311 97.7793 77.9656 97.7793C78.2 97.7793 78.3173 97.8965 78.4345 98.0138C78.5518 98.131 78.5518 98.3655 78.5518 98.7172L77.3794 105.517C77.3794 105.869 77.2621 105.986 77.0276 106.221C76.9104 106.338 76.6759 106.455 76.4414 106.455C76.2069 106.455 76.0897 106.338 75.9725 106.221C75.8552 106.103 75.8552 105.869 75.9725 105.517ZM73.2759 103.29C73.1587 103.759 73.1587 104.11 73.2759 104.345C73.3931 104.579 73.5104 104.814 73.7449 105.048C73.9794 105.166 74.2138 105.283 74.4483 105.283C74.6828 105.283 75.0345 105.166 75.269 105.048C75.5035 104.931 75.738 104.697 75.9725 104.345C76.2069 103.993 76.3242 103.641 76.3242 103.29C76.4414 102.821 76.4414 102.469 76.3242 102.234C76.2069 101.883 76.0897 101.648 75.8552 101.531C75.6207 101.414 75.3862 101.297 75.1518 101.297C74.9173 101.297 74.5656 101.414 74.3311 101.531C74.0966 101.648 73.8621 101.883 73.6276 102.234C73.3931 102.469 73.2759 102.821 73.2759 103.29Z" fill="white"/>
<path d="M84.5311 98.7172L84.0621 101.062C84.4138 100.71 84.7656 100.476 85.1173 100.359C85.469 100.241 85.8207 100.124 86.2897 100.124C86.7587 100.124 87.2276 100.241 87.5794 100.476C87.9311 100.71 88.1656 101.062 88.2828 101.531C88.4001 102 88.4001 102.586 88.2828 103.172C88.1656 103.641 88.0483 104.11 87.9311 104.462C87.6966 104.814 87.4621 105.166 87.2276 105.517C86.9932 105.752 86.6414 105.986 86.2897 106.221C85.938 106.338 85.5863 106.455 85.1173 106.455C84.8828 106.455 84.6483 106.455 84.4138 106.338C84.1794 106.338 84.0621 106.221 83.9449 106.103C83.8276 105.986 83.7104 105.869 83.5932 105.869C83.4759 105.752 83.3587 105.634 83.2414 105.4V105.517C83.2414 105.752 83.1242 105.986 82.8897 106.221C82.6552 106.455 82.538 106.455 82.3035 106.455C82.069 106.455 81.9518 106.338 81.8345 106.221C81.7173 106.103 81.7173 105.869 81.7173 105.517L82.8897 98.7172C82.8897 98.3655 83.0069 98.131 83.2414 98.0138C83.4759 97.8965 83.5932 97.7793 83.8276 97.7793C84.0621 97.7793 84.2966 97.8965 84.2966 98.0138C84.5311 98.131 84.6483 98.3655 84.5311 98.7172ZM83.8276 103.29C83.7104 103.876 83.8276 104.345 83.9449 104.697C84.1794 105.048 84.5311 105.165 85 105.165C85.3518 105.165 85.7035 105.048 86.0552 104.697C86.4069 104.345 86.6414 103.876 86.7587 103.172C86.8759 102.703 86.8759 102.352 86.7587 102.117C86.6414 101.766 86.5242 101.531 86.4069 101.414C86.2897 101.297 85.938 101.179 85.7035 101.179C85.3518 101.179 85.1173 101.297 84.8828 101.414C84.6483 101.531 84.4138 101.766 84.1794 102.117C84.0621 102.469 83.8276 102.938 83.8276 103.29Z" fill="white"/>
<path d="M90.276 106.69L90.5105 106.338L89.4553 101.531C89.3381 101.296 89.338 101.062 89.338 100.945C89.338 100.827 89.4553 100.71 89.4553 100.593C89.5725 100.476 89.6898 100.359 89.807 100.359C89.9243 100.359 90.0415 100.241 90.1587 100.241C90.3932 100.241 90.5105 100.359 90.6277 100.476C90.7449 100.593 90.7449 100.827 90.8622 101.062L91.5656 104.931L93.4415 101.296C93.5587 101.062 93.676 100.827 93.7932 100.593C93.9105 100.476 94.0277 100.359 94.1449 100.241C94.2622 100.241 94.3794 100.124 94.4967 100.124C94.6139 100.124 94.7312 100.124 94.8484 100.241C94.9656 100.359 94.9656 100.359 95.0829 100.476C95.0829 100.593 95.0829 100.71 95.0829 100.827C95.0829 100.945 94.9656 100.945 94.9656 101.179C94.9656 101.296 94.8484 101.414 94.7312 101.531L91.8001 106.924C91.5656 107.393 91.3311 107.745 91.0967 107.979C90.8622 108.214 90.6277 108.448 90.276 108.565C89.9243 108.683 89.5725 108.8 89.1036 108.8C88.6346 108.8 88.2829 108.8 88.0484 108.683C87.9312 108.565 87.9312 108.331 87.9312 108.096C87.9312 107.862 88.0484 107.745 88.1656 107.627C88.2829 107.51 88.5174 107.51 88.6346 107.51C88.7518 107.51 88.7518 107.51 88.8691 107.51C88.9863 107.51 89.1036 107.51 89.1036 107.51C89.338 107.51 89.4553 107.51 89.5725 107.393C89.6898 107.393 89.807 107.276 89.9243 107.159C90.0415 107.041 90.1587 106.924 90.276 106.69Z" fill="white"/>
<path d="M101.531 106.338H98.9518C98.6001 106.338 98.3656 106.221 98.2484 106.103C98.1311 105.986 98.1311 105.634 98.1311 105.283L99.1863 98.9517C99.3035 98.5999 99.4208 98.3654 99.538 98.131C99.7725 98.0137 100.007 97.8965 100.359 97.8965H103.172C103.524 97.8965 103.876 97.8965 104.228 98.0137C104.462 98.0137 104.814 98.131 104.931 98.2482C105.166 98.3655 105.283 98.4827 105.4 98.7172C105.517 98.9517 105.635 99.0689 105.635 99.3034C105.635 99.5379 105.635 99.7724 105.635 100.007C105.517 100.828 104.931 101.414 103.993 101.883C105.048 102.234 105.517 102.938 105.283 103.876C105.166 104.345 105.048 104.814 104.697 105.165C104.345 105.517 103.993 105.869 103.524 105.986C103.29 106.103 102.938 106.221 102.586 106.221C102.352 106.338 102 106.338 101.531 106.338ZM102 102.586H100.241L99.7725 105.048H101.648C102.821 105.048 103.407 104.579 103.641 103.759C103.759 103.29 103.641 103.055 103.407 102.821C103.055 102.703 102.586 102.586 102 102.586ZM100.828 99.1861L100.476 101.296H102C102.469 101.296 102.704 101.296 103.055 101.179C103.29 101.062 103.524 100.945 103.641 100.71C103.759 100.593 103.876 100.359 103.876 100.124C103.993 99.6551 103.876 99.4206 103.524 99.3034C103.29 99.1861 102.821 99.0689 102.235 99.0689H100.828V99.1861Z" fill="white"/>
<path d="M106.573 105.4L107.745 98.8345C107.862 98.4827 107.979 98.2483 108.097 98.0138C108.331 97.8965 108.448 97.7793 108.8 97.7793C109.035 97.7793 109.269 97.8965 109.386 98.0138C109.504 98.131 109.504 98.4827 109.504 98.8345L108.331 105.4C108.214 105.752 108.097 105.986 107.979 106.221C107.862 106.455 107.51 106.455 107.276 106.455C107.041 106.455 106.807 106.338 106.69 106.221C106.573 105.986 106.573 105.752 106.573 105.4Z" fill="white"/>
<path d="M115.248 97.7793C116.069 97.7793 116.89 98.0138 117.359 98.3655C117.945 98.7172 118.297 99.1862 118.531 99.8896C118.766 100.593 118.766 101.297 118.648 102.234C118.531 102.938 118.297 103.524 118.062 103.993C117.828 104.579 117.476 104.931 117.007 105.4C116.538 105.752 116.069 106.103 115.6 106.338C115.131 106.572 114.428 106.69 113.841 106.69C113.138 106.69 112.669 106.572 112.083 106.338C111.614 106.103 111.262 105.869 110.91 105.4C110.676 105.048 110.442 104.579 110.324 103.993C110.207 103.407 110.207 102.821 110.324 102.234C110.442 101.531 110.676 100.945 110.91 100.476C111.145 99.8896 111.497 99.5379 111.966 99.0689C112.435 98.7172 112.904 98.3655 113.373 98.2483C113.841 98.131 114.545 97.7793 115.248 97.7793ZM116.89 102.117C117.007 101.531 117.007 100.945 116.89 100.476C116.773 100.007 116.538 99.6552 116.186 99.4207C115.835 99.1862 115.483 99.0689 115.014 99.0689C114.662 99.0689 114.31 99.1862 114.076 99.3034C113.724 99.4207 113.49 99.6552 113.255 99.8896C113.021 100.124 112.786 100.476 112.552 100.828C112.317 101.179 112.2 101.648 112.2 102.117C112.083 102.586 112.083 103.055 112.2 103.407C112.2 103.759 112.317 104.11 112.552 104.345C112.669 104.579 112.904 104.814 113.255 104.931C113.49 105.048 113.842 105.165 114.193 105.165C114.662 105.165 115.014 105.048 115.483 104.814C115.952 104.579 116.186 104.228 116.538 103.759C116.538 103.29 116.773 102.703 116.89 102.117Z" fill="white"/>
<path d="M122.283 102.703H121.697L121.228 105.4C121.11 105.752 120.993 105.986 120.876 106.221C120.641 106.338 120.524 106.455 120.172 106.455C119.938 106.455 119.703 106.338 119.586 106.221C119.469 106.103 119.469 105.752 119.469 105.4L120.641 98.9517C120.759 98.5999 120.876 98.3654 120.993 98.131C121.228 98.0137 121.462 97.8965 121.814 97.8965H124.628C124.979 97.8965 125.331 97.8965 125.566 97.8965C125.8 97.8965 126.035 98.0137 126.269 98.131C126.503 98.2482 126.738 98.3654 126.855 98.5999C126.972 98.8344 127.09 99.0689 127.207 99.3034C127.207 99.5379 127.207 99.8896 127.207 100.124C127.09 100.71 126.855 101.296 126.386 101.648C125.917 102 125.331 102.234 124.628 102.469C124.862 102.586 125.097 102.821 125.331 103.172C125.566 103.524 125.683 103.876 125.917 104.228C126.035 104.579 126.152 104.931 126.269 105.165C126.386 105.4 126.386 105.634 126.386 105.752C126.386 105.869 126.269 105.986 126.269 106.103C126.152 106.221 126.035 106.338 125.917 106.338C125.8 106.338 125.683 106.455 125.448 106.455C125.214 106.455 125.097 106.455 124.979 106.338C124.862 106.221 124.745 106.103 124.745 105.986C124.628 105.869 124.628 105.634 124.51 105.4L124.041 104.228C123.924 103.759 123.69 103.524 123.572 103.29C123.455 103.055 123.221 102.938 123.103 102.821C122.752 102.703 122.517 102.703 122.283 102.703ZM123.807 99.1861H122.283L121.931 101.531H123.455C123.807 101.531 124.159 101.531 124.51 101.414C124.862 101.296 124.979 101.179 125.214 101.062C125.448 100.945 125.448 100.71 125.566 100.359C125.566 100.124 125.566 99.8896 125.448 99.7723C125.331 99.5379 125.214 99.4206 124.979 99.4206C124.745 99.1861 124.393 99.1861 123.807 99.1861Z" fill="white"/>
<path d="M131.076 105.752L130.255 104.11L128.848 105.752C128.614 105.986 128.497 106.103 128.379 106.221C128.262 106.338 128.145 106.338 127.91 106.338C127.676 106.338 127.559 106.221 127.441 106.103C127.324 105.986 127.324 105.869 127.324 105.634C127.324 105.517 127.559 105.283 127.793 104.931L129.552 102.938L128.614 101.297C128.497 101.062 128.379 100.828 128.379 100.593C128.379 100.476 128.497 100.241 128.614 100.124C128.731 100.007 128.966 99.8896 129.2 99.8896C129.435 99.8896 129.552 99.8897 129.669 100.007C129.786 100.124 129.904 100.241 130.021 100.476L130.841 101.883L132.014 100.476C132.248 100.241 132.366 100.124 132.483 100.007C132.6 99.8897 132.835 99.8896 132.952 99.8896C133.186 99.8896 133.304 99.8897 133.421 100.007C133.538 100.124 133.538 100.241 133.538 100.476C133.538 100.593 133.421 100.71 133.421 100.828C133.304 100.945 133.186 101.062 133.069 101.179L131.545 102.821L132.6 104.814C132.717 105.166 132.835 105.4 132.835 105.517C132.835 105.634 132.717 105.869 132.6 105.986C132.483 106.103 132.248 106.221 132.014 106.221C131.779 106.221 131.662 106.221 131.545 106.103C131.31 106.221 131.193 105.986 131.076 105.752Z" fill="white"/>
<path d="M139.283 98.8345L140.221 104.462L143.152 98.8345C143.269 98.4828 143.386 98.3656 143.503 98.2483C143.621 98.1311 143.621 98.0138 143.855 97.8966C143.972 97.7793 144.207 97.7793 144.324 97.7793C144.441 97.7793 144.559 97.7793 144.676 97.8966C144.793 98.0138 144.91 98.0138 144.91 98.1311C144.91 98.2483 145.028 98.3656 144.91 98.4828C144.91 98.6 144.91 98.6 144.793 98.7173C144.793 98.8345 144.676 98.9518 144.676 98.9518C144.676 99.069 144.559 99.1862 144.559 99.1862L141.51 104.697C141.393 104.931 141.276 105.048 141.159 105.283C141.041 105.517 140.924 105.635 140.807 105.752C140.69 105.869 140.572 105.986 140.338 106.103C140.221 106.221 139.986 106.221 139.752 106.221C139.517 106.221 139.283 106.221 139.166 106.103C139.048 105.986 138.931 105.869 138.814 105.752C138.697 105.635 138.697 105.4 138.697 105.283C138.697 105.048 138.579 104.931 138.579 104.697L137.524 99.3035C137.524 99.1862 137.524 99.069 137.524 99.069C137.524 98.9518 137.524 98.8345 137.524 98.7173C137.524 98.6 137.524 98.4828 137.524 98.4828C137.524 98.2483 137.641 98.1311 137.876 97.8966C138.11 97.7793 138.228 97.6621 138.462 97.6621C138.697 97.6621 138.931 97.7793 139.048 97.8966C139.166 98.2483 139.283 98.4828 139.283 98.8345Z" fill="white"/>
<path d="M149.014 103.641H145.966C145.966 103.993 145.966 104.345 145.966 104.579C146.083 104.814 146.2 105.048 146.435 105.166C146.669 105.283 146.904 105.4 147.138 105.4C147.373 105.4 147.49 105.4 147.607 105.283C147.724 105.283 147.959 105.166 148.076 105.048C148.193 104.931 148.428 104.814 148.545 104.697C148.662 104.579 148.897 104.462 149.131 104.228C149.248 104.11 149.366 104.11 149.483 104.11C149.6 104.11 149.717 104.11 149.835 104.228C149.952 104.345 149.952 104.462 149.952 104.579C149.952 104.697 149.835 104.931 149.717 105.048C149.6 105.166 149.366 105.4 149.131 105.635C148.897 105.752 148.545 105.986 148.193 106.103C147.842 106.221 147.49 106.221 147.021 106.221C145.966 106.221 145.262 105.986 144.793 105.4C144.324 104.814 144.207 104.11 144.324 103.055C144.442 102.586 144.559 102.117 144.793 101.766C145.028 101.414 145.262 101.062 145.614 100.71C145.966 100.476 146.317 100.241 146.669 100.007C147.138 99.8897 147.49 99.7725 147.959 99.7725C148.545 99.7725 149.014 99.8897 149.483 100.124C149.835 100.359 150.186 100.71 150.304 101.179C150.421 101.531 150.538 102 150.421 102.469C150.304 102.821 150.186 103.172 149.952 103.29C149.717 103.641 149.366 103.641 149.014 103.641ZM146.083 102.821H148.897C148.897 102.235 148.897 101.883 148.662 101.648C148.428 101.414 148.193 101.297 147.724 101.297C147.373 101.297 147.021 101.414 146.669 101.648C146.435 101.883 146.2 102.235 146.083 102.821Z" fill="white"/>
<path d="M153.469 100.945V101.179C153.821 100.827 154.172 100.593 154.524 100.359C154.876 100.124 155.228 100.124 155.697 100.124C156.166 100.124 156.517 100.241 156.752 100.359C156.986 100.593 157.221 100.827 157.338 101.179C157.455 101.414 157.455 101.531 157.455 101.765C157.455 102 157.455 102.234 157.338 102.586L156.869 105.517C156.869 105.869 156.752 106.103 156.517 106.221C156.4 106.338 156.166 106.455 155.931 106.455C155.697 106.455 155.579 106.338 155.462 106.221C155.345 106.103 155.345 105.869 155.345 105.517L155.814 102.938C155.931 102.469 155.931 102 155.814 101.765C155.697 101.531 155.462 101.414 154.993 101.414C154.759 101.414 154.407 101.531 154.172 101.648C153.938 101.765 153.703 102 153.586 102.352C153.469 102.586 153.352 103.055 153.234 103.641L152.883 105.634C152.883 105.986 152.766 106.221 152.531 106.338C152.297 106.455 152.179 106.572 151.945 106.572C151.71 106.572 151.593 106.455 151.476 106.338C151.359 106.221 151.359 105.986 151.359 105.634L152.179 101.062C152.179 100.71 152.297 100.593 152.531 100.359C152.648 100.241 152.883 100.124 153.117 100.124C153.235 100.124 153.352 100.124 153.469 100.241C153.586 100.359 153.586 100.359 153.703 100.476C153.469 100.593 153.469 100.827 153.469 100.945Z" fill="white"/>
<path d="M159.331 100.241H159.448L159.566 99.3033C159.566 99.0688 159.683 98.8344 159.683 98.7171C159.683 98.5999 159.8 98.4826 159.917 98.3654C160.035 98.2482 160.152 98.1309 160.269 98.1309C160.386 98.1309 160.504 98.0137 160.621 98.0137C160.855 98.0137 160.973 98.1309 161.09 98.2482C161.207 98.3654 161.207 98.4826 161.207 98.5999C161.207 98.7171 161.207 98.9516 161.09 99.1861L160.855 100.241H161.441C161.676 100.241 161.793 100.241 161.91 100.358C162.028 100.476 162.028 100.593 162.028 100.71C162.028 100.945 161.91 101.062 161.676 101.179C161.441 101.296 161.207 101.296 160.973 101.296H160.738L160.269 104.227C160.269 104.462 160.152 104.696 160.152 104.814C160.152 104.931 160.152 105.048 160.269 105.165C160.386 105.283 160.386 105.283 160.621 105.283C160.738 105.283 160.855 105.283 160.973 105.283C161.09 105.283 161.207 105.283 161.324 105.283C161.441 105.283 161.559 105.283 161.676 105.4C161.793 105.517 161.793 105.634 161.793 105.752C161.793 105.986 161.559 106.221 161.324 106.338C160.973 106.455 160.621 106.572 160.152 106.572C159.683 106.572 159.331 106.455 159.097 106.338C158.862 106.221 158.745 105.986 158.745 105.634C158.745 105.4 158.745 104.931 158.862 104.462L159.448 101.414H159.214C158.979 101.414 158.862 101.414 158.745 101.296C158.628 101.179 158.628 101.062 158.628 100.945C158.628 100.827 158.745 100.593 158.862 100.593C158.979 100.241 159.097 100.241 159.331 100.241Z" fill="white"/>
<path d="M166.6 105.517V105.283C166.366 105.517 166.131 105.752 165.897 105.869C165.662 105.986 165.428 106.103 165.193 106.221C164.959 106.338 164.607 106.338 164.373 106.338C164.021 106.338 163.669 106.221 163.435 106.103C163.2 105.986 162.966 105.752 162.848 105.4C162.731 105.048 162.731 104.579 162.848 103.993L163.435 100.945C163.435 100.593 163.552 100.359 163.786 100.241C164.021 100.124 164.138 100.007 164.373 100.007C164.607 100.007 164.842 100.124 164.959 100.241C165.076 100.359 165.076 100.593 165.076 100.945L164.607 103.407C164.49 103.759 164.49 104.11 164.49 104.345C164.49 104.579 164.607 104.814 164.724 104.931C164.842 105.048 165.076 105.165 165.311 105.165C165.545 105.165 165.779 105.048 166.131 104.931C166.366 104.814 166.6 104.579 166.717 104.345C166.835 104.11 166.952 103.641 167.069 102.938L167.421 101.062C167.421 100.71 167.538 100.476 167.773 100.359C167.89 100.241 168.124 100.124 168.359 100.124C168.593 100.124 168.711 100.241 168.828 100.359C168.945 100.476 168.945 100.71 168.945 101.062L168.124 105.634C168.124 105.986 168.007 106.103 167.773 106.338C167.538 106.572 167.421 106.572 167.186 106.572C166.952 106.572 166.835 106.455 166.717 106.338C166.483 106.103 166.483 105.869 166.6 105.517Z" fill="white"/>
<path d="M171.407 104.227L171.173 105.517C171.173 105.869 171.055 106.103 170.821 106.221C170.586 106.338 170.469 106.455 170.235 106.455C170 106.455 169.883 106.338 169.766 106.221C169.648 106.103 169.648 105.869 169.648 105.517L170.469 101.179C170.586 100.476 170.938 100.124 171.407 100.124C171.642 100.124 171.876 100.241 171.876 100.359C171.993 100.476 171.993 100.71 171.993 101.062C172.228 100.71 172.462 100.476 172.697 100.359C172.931 100.241 173.166 100.124 173.517 100.124C173.869 100.124 174.104 100.241 174.455 100.359C174.69 100.476 174.807 100.71 174.807 101.062C174.807 101.296 174.69 101.414 174.573 101.531C174.455 101.648 174.221 101.765 174.104 101.765C174.104 101.765 173.869 101.765 173.752 101.648C173.517 101.531 173.4 101.531 173.166 101.531C172.931 101.531 172.697 101.648 172.579 101.765C172.462 101.883 172.228 102.117 172.111 102.352C171.993 102.586 171.876 102.821 171.759 103.172C171.642 103.524 171.407 103.759 171.407 104.227Z" fill="white"/>
<path d="M179.145 103.641H176.097C176.097 103.993 176.097 104.345 176.097 104.579C176.214 104.814 176.331 105.048 176.565 105.166C176.8 105.283 177.034 105.4 177.269 105.4C177.503 105.4 177.621 105.4 177.738 105.283C177.855 105.283 178.09 105.166 178.207 105.048C178.324 104.931 178.559 104.814 178.676 104.697C178.793 104.579 179.028 104.462 179.262 104.228C179.379 104.11 179.497 104.11 179.614 104.11C179.731 104.11 179.848 104.11 179.965 104.228C180.083 104.345 180.083 104.462 180.083 104.579C180.083 104.697 179.965 104.931 179.848 105.048C179.731 105.166 179.497 105.4 179.262 105.635C179.028 105.752 178.676 105.986 178.324 106.103C177.972 106.221 177.621 106.221 177.152 106.221C176.097 106.221 175.393 105.986 174.924 105.4C174.455 104.814 174.338 104.11 174.455 103.055C174.572 102.586 174.69 102.117 174.924 101.766C175.159 101.414 175.393 101.062 175.745 100.71C176.097 100.476 176.448 100.241 176.8 100.007C177.269 99.8897 177.621 99.7725 178.09 99.7725C178.676 99.7725 179.145 99.8897 179.614 100.124C179.965 100.359 180.317 100.71 180.434 101.179C180.552 101.531 180.669 102 180.552 102.469C180.434 102.821 180.317 103.172 180.083 103.29C179.848 103.641 179.497 103.641 179.145 103.641ZM176.214 102.821H179.028C179.028 102.235 179.028 101.883 178.793 101.648C178.559 101.414 178.324 101.297 177.855 101.297C177.503 101.297 177.152 101.414 176.8 101.648C176.565 101.883 176.331 102.235 176.214 102.821Z" fill="white"/>
<path d="M189.814 105.4L189.579 104.345H186.179L185.593 105.4C185.359 105.869 185.124 106.103 185.007 106.221C184.89 106.338 184.655 106.455 184.421 106.455C184.186 106.455 184.069 106.338 183.952 106.221C183.834 106.103 183.717 105.869 183.834 105.634C183.834 105.517 183.952 105.4 183.952 105.283C183.952 105.166 184.069 105.048 184.186 104.814L187.352 99.4207C187.469 99.3034 187.586 99.069 187.703 98.8345C187.821 98.6 187.938 98.4827 188.055 98.2483C188.172 98.131 188.29 98.0138 188.524 97.8965C188.641 97.7793 188.876 97.7793 189.11 97.7793C189.345 97.7793 189.579 97.7793 189.697 97.8965C189.814 98.0138 189.931 98.131 190.048 98.2483C190.165 98.3655 190.165 98.4827 190.165 98.7172C190.165 98.8345 190.283 99.069 190.283 99.4207L191.572 104.814C191.69 105.283 191.69 105.517 191.69 105.752C191.69 105.986 191.572 106.103 191.338 106.338C191.103 106.455 190.986 106.572 190.752 106.572C190.634 106.572 190.517 106.572 190.4 106.455C190.283 106.455 190.283 106.338 190.165 106.221C190.165 106.103 190.048 105.986 190.048 105.869C189.931 105.634 189.814 105.517 189.814 105.4ZM186.883 103.055H189.345L188.641 99.5379L186.883 103.055Z" fill="white"/>
<path d="M196.966 105.517V105.4C196.731 105.634 196.497 105.869 196.262 105.986C196.028 106.103 195.793 106.221 195.559 106.338C195.324 106.455 195.09 106.455 194.738 106.455C194.386 106.455 194.035 106.338 193.683 106.221C193.331 106.103 193.214 105.869 192.979 105.517C192.745 105.166 192.628 104.931 192.628 104.462C192.628 103.993 192.628 103.641 192.628 103.172C192.745 102.234 193.214 101.414 193.8 100.945C194.386 100.359 195.09 100.124 195.793 100.124C196.262 100.124 196.614 100.241 196.848 100.359C197.083 100.476 197.435 100.71 197.669 101.062L198.021 98.7172C198.021 98.3655 198.138 98.131 198.373 98.0138C198.49 97.8965 198.724 97.7793 198.959 97.7793C199.193 97.7793 199.31 97.8965 199.428 98.0138C199.545 98.131 199.545 98.3655 199.545 98.7172L198.373 105.634C198.373 105.986 198.255 106.103 198.021 106.338C197.904 106.455 197.669 106.572 197.435 106.572C197.2 106.572 197.083 106.455 196.966 106.338C196.966 106.103 196.966 105.869 196.966 105.517ZM194.386 103.29C194.269 103.759 194.269 104.11 194.386 104.345C194.504 104.697 194.621 104.814 194.855 105.048C195.09 105.283 195.324 105.283 195.559 105.283C195.793 105.283 196.145 105.166 196.379 105.048C196.614 104.931 196.848 104.697 197.083 104.345C197.317 103.993 197.435 103.641 197.435 103.29C197.552 102.821 197.552 102.469 197.435 102.234C197.317 101.883 197.2 101.648 196.966 101.531C196.731 101.414 196.497 101.297 196.262 101.297C196.028 101.297 195.676 101.414 195.441 101.531C195.207 101.648 194.973 101.883 194.738 102.234C194.504 102.469 194.386 102.821 194.386 103.29Z" fill="white"/>
<path d="M201.772 101.062L202.359 104.579L204.352 100.828C204.469 100.476 204.703 100.359 204.821 100.241C204.938 100.124 205.055 100.007 205.29 100.007C205.524 100.007 205.641 100.124 205.759 100.241C205.876 100.359 205.876 100.476 205.876 100.71C205.876 100.828 205.876 100.828 205.759 100.945C205.759 101.062 205.641 101.179 205.641 101.179C205.641 101.179 205.524 101.296 205.524 101.414L203.414 105.165C203.297 105.283 203.297 105.4 203.179 105.517C203.062 105.634 202.945 105.869 202.828 105.986C202.71 106.103 202.593 106.221 202.476 106.221C202.359 106.338 202.241 106.338 202.007 106.338C201.772 106.338 201.655 106.338 201.538 106.221C201.421 106.103 201.303 105.986 201.303 105.869C201.303 105.752 201.186 105.517 201.069 105.165L200.248 101.531C200.248 101.414 200.248 101.296 200.248 101.296C200.248 101.179 200.248 101.062 200.248 101.062C200.248 100.945 200.248 100.828 200.248 100.828C200.248 100.71 200.366 100.593 200.366 100.476C200.483 100.359 200.6 100.241 200.717 100.241C200.834 100.241 200.952 100.124 201.069 100.124C201.303 100.124 201.538 100.241 201.538 100.359C201.538 100.476 201.772 100.71 201.772 101.062Z" fill="white"/>
<path d="M208.69 100.945L207.869 105.517C207.869 105.869 207.752 106.103 207.517 106.221C207.283 106.338 207.166 106.455 206.931 106.455C206.697 106.455 206.579 106.338 206.462 106.221C206.345 106.103 206.345 105.869 206.345 105.517L207.166 101.062C207.166 100.71 207.283 100.476 207.517 100.359C207.635 100.241 207.869 100.124 208.104 100.124C208.338 100.124 208.455 100.241 208.573 100.359C208.69 100.476 208.69 100.71 208.69 100.945ZM208.104 99.4207C207.869 99.4207 207.752 99.3034 207.635 99.1862C207.517 99.0689 207.517 98.8345 207.517 98.6C207.517 98.3655 207.635 98.2483 207.869 98.0138C208.104 97.8965 208.221 97.7793 208.455 97.7793C208.69 97.7793 208.807 97.8965 208.924 98.0138C209.042 98.131 209.159 98.3655 209.042 98.6C209.042 98.8345 208.924 99.0689 208.69 99.1862C208.573 99.3034 208.338 99.4207 208.104 99.4207Z" fill="white"/>
<path d="M214.669 104.462C214.552 104.931 214.435 105.283 214.2 105.517C213.966 105.869 213.614 106.103 213.145 106.221C212.676 106.338 212.207 106.455 211.621 106.455C211.035 106.455 210.566 106.338 210.214 106.221C209.862 106.103 209.628 105.869 209.393 105.634C209.159 105.4 209.159 105.166 209.276 104.814C209.276 104.697 209.393 104.462 209.51 104.345C209.628 104.228 209.862 104.11 209.979 104.11C210.097 104.11 210.214 104.11 210.331 104.228C210.448 104.345 210.448 104.462 210.566 104.579C210.683 104.814 210.8 105.048 211.035 105.166C211.269 105.283 211.504 105.4 211.855 105.4C212.207 105.4 212.441 105.283 212.676 105.166C212.91 105.048 213.028 104.814 213.028 104.697C213.028 104.462 213.028 104.228 212.793 104.11C212.559 103.993 212.324 103.876 211.855 103.759C211.386 103.641 210.917 103.524 210.566 103.29C210.214 103.172 209.979 102.938 209.862 102.703C209.745 102.469 209.628 102.117 209.745 101.766C209.745 101.414 209.979 101.179 210.214 100.828C210.448 100.593 210.8 100.359 211.152 100.124C211.504 100.007 211.973 99.8896 212.559 99.8896C212.91 99.8896 213.262 99.8897 213.614 100.007C213.966 100.124 214.2 100.241 214.317 100.359C214.552 100.476 214.669 100.71 214.669 100.828C214.786 100.945 214.786 101.179 214.786 101.297C214.786 101.531 214.669 101.648 214.552 101.766C214.435 101.883 214.2 101.883 213.966 101.883C213.848 101.883 213.731 101.883 213.614 101.766C213.497 101.648 213.379 101.531 213.262 101.297C213.145 101.179 213.028 101.062 212.91 100.945C212.793 100.828 212.559 100.828 212.324 100.828C212.09 100.828 211.738 100.945 211.621 101.062C211.386 101.179 211.269 101.297 211.269 101.531C211.269 101.648 211.269 101.883 211.386 101.883C211.504 101.883 211.621 102.117 211.855 102.117C212.09 102.117 212.324 102.234 212.793 102.352C213.262 102.469 213.614 102.586 213.848 102.821C214.083 102.938 214.317 103.172 214.435 103.407C214.669 103.876 214.786 104.11 214.669 104.462Z" fill="white"/>
<path d="M222.055 103.29C221.938 103.759 221.821 104.227 221.586 104.579C221.352 104.931 221.117 105.283 220.765 105.634C220.414 105.869 220.062 106.103 219.71 106.338C219.359 106.572 218.89 106.572 218.421 106.572C217.952 106.572 217.483 106.455 217.131 106.338C216.779 106.221 216.545 105.986 216.31 105.634C216.076 105.4 215.959 105.048 215.841 104.579C215.724 104.227 215.724 103.759 215.841 103.29C215.959 102.821 216.076 102.352 216.31 102C216.545 101.648 216.779 101.296 217.131 100.945C217.483 100.71 217.834 100.476 218.186 100.359C218.655 100.241 219.007 100.124 219.476 100.124C219.945 100.124 220.414 100.241 220.765 100.359C221.117 100.476 221.469 100.71 221.586 101.062C221.821 101.296 221.938 101.648 222.055 102.117C222.172 102.586 222.172 102.821 222.055 103.29ZM220.531 103.29C220.648 102.703 220.648 102.117 220.414 101.765C220.179 101.414 219.828 101.179 219.359 101.179C219.007 101.179 218.772 101.296 218.538 101.414C218.303 101.531 218.069 101.765 217.834 102.117C217.6 102.469 217.483 102.821 217.483 103.172C217.365 103.524 217.365 103.993 217.483 104.227C217.6 104.579 217.717 104.814 217.834 104.931C218.069 105.048 218.303 105.165 218.655 105.165C219.124 105.165 219.593 104.931 219.828 104.579C220.179 104.345 220.414 103.876 220.531 103.29Z" fill="white"/>
<path d="M224.635 104.227L224.4 105.517C224.4 105.869 224.283 106.103 224.048 106.221C223.814 106.338 223.697 106.455 223.462 106.455C223.228 106.455 223.11 106.338 222.993 106.221C222.876 106.103 222.876 105.869 222.876 105.517L223.697 101.179C223.814 100.476 224.166 100.124 224.635 100.124C224.869 100.124 225.104 100.241 225.104 100.359C225.221 100.476 225.221 100.71 225.221 101.062C225.455 100.71 225.69 100.476 225.924 100.359C226.159 100.241 226.393 100.124 226.745 100.124C227.097 100.124 227.331 100.241 227.683 100.359C227.917 100.476 228.035 100.71 228.035 101.062C228.035 101.296 227.917 101.414 227.8 101.531C227.683 101.648 227.448 101.765 227.331 101.765C227.331 101.765 227.097 101.765 226.979 101.648C226.745 101.531 226.628 101.531 226.393 101.531C226.159 101.531 225.924 101.648 225.807 101.765C225.69 101.883 225.455 102.117 225.338 102.352C225.221 102.586 225.104 102.821 224.986 103.172C224.869 103.524 224.752 103.759 224.635 104.227Z" fill="white"/>
<path d="M232.959 104.462C232.841 104.931 232.724 105.283 232.49 105.517C232.255 105.869 231.903 106.103 231.434 106.221C230.966 106.338 230.497 106.455 229.91 106.455C229.324 106.455 228.855 106.338 228.503 106.221C228.152 106.103 227.917 105.869 227.683 105.634C227.448 105.4 227.448 105.166 227.566 104.814C227.566 104.697 227.683 104.462 227.8 104.345C227.917 104.228 228.152 104.11 228.269 104.11C228.386 104.11 228.503 104.11 228.621 104.228C228.738 104.345 228.738 104.462 228.855 104.579C228.972 104.814 229.09 105.048 229.324 105.166C229.559 105.283 229.793 105.4 230.145 105.4C230.497 105.4 230.731 105.283 230.966 105.166C231.2 105.048 231.317 104.814 231.317 104.697C231.317 104.462 231.317 104.228 231.083 104.11C230.848 103.993 230.614 103.876 230.145 103.759C229.676 103.641 229.207 103.524 228.855 103.29C228.503 103.172 228.269 102.938 228.152 102.703C228.035 102.469 227.917 102.117 228.034 101.766C228.034 101.414 228.269 101.179 228.503 100.828C228.738 100.593 229.09 100.359 229.441 100.124C229.793 100.007 230.262 99.8896 230.848 99.8896C231.2 99.8896 231.552 99.8897 231.903 100.007C232.255 100.124 232.49 100.241 232.607 100.359C232.841 100.476 232.959 100.71 232.959 100.828C233.076 100.945 233.076 101.179 233.076 101.297C233.076 101.531 232.959 101.648 232.841 101.766C232.724 101.883 232.49 101.883 232.255 101.883C232.138 101.883 232.021 101.883 231.903 101.766C231.786 101.648 231.669 101.531 231.552 101.297C231.434 101.179 231.317 101.062 231.2 100.945C231.083 100.828 230.848 100.828 230.614 100.828C230.379 100.828 230.028 100.945 229.91 101.062C229.676 101.179 229.559 101.297 229.559 101.531C229.559 101.648 229.559 101.883 229.676 101.883C229.793 101.883 229.91 102.117 230.145 102.117C230.379 102.117 230.614 102.234 231.083 102.352C231.552 102.469 231.903 102.586 232.138 102.821C232.372 102.938 232.607 103.172 232.724 103.407C232.959 103.876 232.959 104.11 232.959 104.462Z" fill="white"/>
</g>
<defs>
<linearGradient id="paint0_linear_1_450" x1="28.3607" y1="88.3314" x2="58.9028" y2="45.427" gradientUnits="userSpaceOnUse">
<stop stop-color="#125BD3"/>
<stop offset="1" stop-color="#6DD9FC"/>
</linearGradient>
<linearGradient id="paint1_linear_1_450" x1="6.57921e-05" y1="57.0622" x2="33.451" y2="25.7929" gradientUnits="userSpaceOnUse">
<stop stop-color="#30BAA4"/>
<stop offset="1" stop-color="#B4F35B"/>
</linearGradient>
<clipPath id="clip0_1_450">
<rect width="233.193" height="108.8" fill="white"/>
</clipPath>
<clipPath id="clip1_1_450">
<rect width="58.9027" height="57.4483" fill="white" transform="translate(0 25.793)"/>
</clipPath>
</defs>
</svg>
