<svg width="928" height="928" viewBox="0 0 928 928" fill="none" xmlns="http://www.w3.org/2000/svg">
<g opacity="0.4" filter="url(#filter0_f_1_63)">
<circle cx="464" cy="464" r="292" fill="url(#paint0_linear_1_63)"/>
</g>
<g filter="url(#filter1_f_1_63)">
<path d="M235.283 373.936C231.215 362.89 216.169 360.03 208.137 372.519C203.93 386.033 214.887 395.412 225.494 392.983L249.502 458.567L229.442 443.821C233.677 436.757 232.048 427.535 225.131 422.754C214.827 415.308 199.078 421.629 199.349 438.1C204.032 453.41 219.517 454.632 227.617 446.26L251.61 463.816L256.078 475.555C246.671 480.063 243.957 494.562 256.046 501.901C270.653 506.401 279.777 494.204 276.256 483.305C276.002 482.065 275.202 480.68 274.256 479.84L305.966 503.564C299.76 513.614 305.828 528.124 322.152 528.399C338.009 523.863 339.123 506.592 329.366 499.292C322.448 494.51 313.373 495.593 308.191 501.818L254.381 462.216L253.981 461.523C255.474 462.509 257.513 463.641 259.152 464.08C266.256 465.984 273.184 461.984 275.487 455.573L306.633 463.919C310.673 468.515 316.83 469.579 321.933 468.018L335.594 471.678L395.511 523.458C389.051 532.269 394.173 545.94 408.565 546.868C411.044 546.361 413.668 545.307 415.201 543.961L415.561 546.986C408.672 548.654 403.89 555.571 404.866 562.861C406.602 573.867 420.223 579.86 430.694 569.196C437.486 556.96 428.754 545.835 418.04 546.478L417.425 542.214C423.7 536.282 423.457 526.261 416.832 520.386C415.886 519.547 414.793 519.254 413.846 518.415L410.775 497.094C413.546 495.494 416.61 492.801 417.489 489.523L425.685 491.719C417.185 499.397 419.721 511.79 428.425 516.465C435.089 520.007 443.51 516.993 447.453 511.021L504.484 538.602L488.881 544.377C484.374 534.97 470.967 532.549 463.082 544.492C458.729 558.552 470.925 567.677 481.425 563.462C487.914 561.102 491.749 553.345 489.935 547.002L507.47 540.573L527.755 550.108C525.306 557.065 528.466 564.94 535.131 568.482C545.473 573.596 558.93 564.904 555.887 550.032C549.38 537.161 534.401 538.419 529.034 547.522L511.481 538.719L570.029 516.926C572.936 523.561 580.439 526.157 587.475 523.943C597.828 520.275 600.688 505.229 588.599 497.89C575.085 493.683 566.8 504.933 569.375 514.994L508.748 537.987L449.131 509.129C450.556 505.997 450.488 501.879 449.035 498.561L499.852 512.177C498.309 522.306 507.88 532.484 521.005 527.216C532.822 518.084 527.847 503.866 517.465 501.084C510.362 499.181 503.433 503.181 501.13 509.592L448.127 495.39C444.634 490.94 439.063 487.69 430.935 489.612C430.242 490.012 429.549 490.412 429.549 490.412L419.167 487.63C420.524 480.38 415.831 473.852 408.728 471.948C408.181 471.802 408.181 471.802 407.635 471.655L406.152 461.888C416.213 459.313 421.366 446.638 411.795 436.46C399.013 429.521 387.595 439.346 388.785 450.206C389.76 457.495 395.985 462.677 403.674 462.395L404.756 471.47C395.281 471.859 387.582 480.923 392.596 492.809C397.436 498.791 403.446 500.401 409.096 498.987L412.207 517.976C407.289 516.658 402.332 517.672 398.429 521.312L342.697 473.582L357.997 477.681C356.786 484.385 361.333 491.46 367.89 493.217C378.272 495.998 389.289 485.48 383.475 472.209C374.596 461.631 361.911 465.26 358.182 474.803L337.965 469.386L330.393 462.672C334.883 456.847 333.654 448.318 327.975 443.283C319.457 435.73 304.147 440.412 303.072 455.351C303.726 457.283 304.38 459.215 305.18 460.601L276.766 452.987C278.308 442.859 268.591 433.227 256.012 438.642C252.255 441.735 250.284 444.72 249.806 448.692L229.612 392.915C234.208 388.875 237.497 380.972 235.283 373.936ZM266.099 475.312C263.367 474.58 260.488 474.394 257.463 474.755L254.302 466.88L266.099 475.312ZM326.676 463.432L330.061 466.097L324.597 464.633C325.69 464.925 326.383 464.525 326.676 463.432Z" fill="url(#paint1_linear_1_63)"/>
</g>
<defs>
<filter id="filter0_f_1_63" x="0" y="0" width="928" height="928" filterUnits="userSpaceOnUse" color-interpolation-filters="sRGB">
<feFlood flood-opacity="0" result="BackgroundImageFix"/>
<feBlend mode="normal" in="SourceGraphic" in2="BackgroundImageFix" result="shape"/>
<feGaussianBlur stdDeviation="86" result="effect1_foregroundBlur_1_63"/>
</filter>
<filter id="filter1_f_1_63" x="187.346" y="352.33" width="421.173" height="234.452" filterUnits="userSpaceOnUse" color-interpolation-filters="sRGB">
<feFlood flood-opacity="0" result="BackgroundImageFix"/>
<feBlend mode="normal" in="SourceGraphic" in2="BackgroundImageFix" result="shape"/>
<feGaussianBlur stdDeviation="6" result="effect1_foregroundBlur_1_63"/>
</filter>
<linearGradient id="paint0_linear_1_63" x1="172" y1="172" x2="632.542" y2="756" gradientUnits="userSpaceOnUse">
<stop stop-color="#36C994" stop-opacity="0"/>
<stop offset="1" stop-color="#22A7F6"/>
</linearGradient>
<linearGradient id="paint1_linear_1_63" x1="369.965" y1="339.287" x2="343.138" y2="558.999" gradientUnits="userSpaceOnUse">
<stop stop-color="#22A7F6"/>
<stop offset="1" stop-color="#22A7F6" stop-opacity="0"/>
</linearGradient>
</defs>
</svg>
