<svg width="80" height="80" viewBox="0 0 80 80" fill="none" xmlns="http://www.w3.org/2000/svg">
<path d="M0 40C0 17.9086 17.9086 0 40 0C62.0914 0 80 17.9086 80 40C80 62.0914 62.0914 80 40 80C17.9086 80 0 62.0914 0 40Z" fill="#36C994"/>
<path d="M40 43.75C44.8325 43.75 48.75 39.8325 48.75 35C48.75 30.1675 44.8325 26.25 40 26.25C35.1675 26.25 31.25 30.1675 31.25 35C31.25 39.8325 35.1675 43.75 40 43.75Z" fill="white"/>
<path d="M40 21.25C37.1673 21.2443 34.4021 22.1145 32.0832 23.7416C29.7644 25.3687 28.0054 27.673 27.0472 30.3387C26.0891 33.0045 25.9786 35.9013 26.731 38.6323C27.4834 41.3633 29.0618 43.7948 31.25 45.5938V57.5C31.2488 57.7133 31.3028 57.9233 31.4068 58.1095C31.5109 58.2958 31.6614 58.4518 31.8438 58.5625C32.0247 58.6762 32.2316 58.7417 32.445 58.7526C32.6584 58.7636 32.871 58.7196 33.0625 58.625L40 55.1407L46.9375 58.625C47.1149 58.7034 47.3061 58.7459 47.5 58.75C47.8315 58.75 48.1495 58.6183 48.3839 58.3839C48.6183 58.1495 48.75 57.8316 48.75 57.5V45.5938C50.9382 43.7948 52.5167 41.3633 53.2691 38.6323C54.0215 35.9013 53.911 33.0045 52.9528 30.3387C51.9947 27.673 50.2357 25.3687 47.9168 23.7416C45.598 22.1145 42.8328 21.2443 40 21.25ZM40 46.25C37.775 46.25 35.5999 45.5902 33.7499 44.3541C31.8998 43.1179 30.4579 41.3609 29.6064 39.3052C28.7549 37.2495 28.5321 34.9875 28.9662 32.8053C29.4003 30.623 30.4717 28.6184 32.0451 27.0451C33.6184 25.4717 35.623 24.4003 37.8053 23.9662C39.9875 23.5321 42.2495 23.7549 44.3052 24.6064C46.3609 25.4579 48.1179 26.8998 49.3541 28.7499C50.5902 30.5999 51.25 32.775 51.25 35C51.2459 37.9824 50.0593 40.8415 47.9504 42.9504C45.8415 45.0593 42.9824 46.2459 40 46.25Z" fill="white"/>
</svg>
