<svg width="80" height="80" viewBox="0 0 80 80" fill="none" xmlns="http://www.w3.org/2000/svg">
<path d="M0 40C0 17.9086 17.9086 0 40 0C62.0914 0 80 17.9086 80 40C80 62.0914 62.0914 80 40 80C17.9086 80 0 62.0914 0 40Z" fill="#22A7F6"/>
<path d="M50 29H30C29.4696 29 28.9609 29.2107 28.5858 29.5858C28.2107 29.9609 28 30.4696 28 31V38.3375C28 49.5125 37.475 53.225 39.375 53.85C39.7781 54.0004 40.2219 54.0004 40.625 53.85C42.525 53.225 52 49.5125 52 38.3375V31C52 30.4696 51.7893 29.9609 51.4142 29.5858C51.0391 29.2107 50.5304 29 50 29ZM45.0625 40.4L41.6125 41.525L43.75 44.4625C43.8272 44.5681 43.8826 44.6879 43.9131 44.8151C43.9435 44.9422 43.9484 45.0742 43.9275 45.2033C43.9066 45.3324 43.8602 45.456 43.7911 45.567C43.722 45.678 43.6316 45.7742 43.525 45.85C43.3571 45.9806 43.1502 46.051 42.9375 46.05C42.7794 46.0485 42.6238 46.0106 42.4829 45.939C42.3419 45.8674 42.2195 45.7643 42.125 45.6375L40 42.7L37.875 45.6375C37.7805 45.7643 37.6581 45.8674 37.5171 45.939C37.3762 46.0106 37.2206 46.0485 37.0625 46.05C36.8498 46.051 36.6429 45.9806 36.475 45.85C36.3684 45.7742 36.278 45.678 36.2089 45.567C36.1398 45.456 36.0934 45.3324 36.0725 45.2033C36.0515 45.0742 36.0565 44.9422 36.0869 44.8151C36.1174 44.6879 36.1728 44.5681 36.25 44.4625L38.3875 41.525L34.9375 40.4C34.6861 40.3196 34.4767 40.1431 34.355 39.9089C34.2332 39.6748 34.209 39.402 34.2875 39.15C34.3706 38.8977 34.5495 38.6882 34.7857 38.5666C35.0219 38.445 35.2964 38.4211 35.55 38.5L39 39.625V36C39 35.7348 39.1054 35.4804 39.2929 35.2929C39.4804 35.1054 39.7348 35 40 35C40.2652 35 40.5196 35.1054 40.7071 35.2929C40.8946 35.4804 41 35.7348 41 36V39.625L44.45 38.5C44.7036 38.4211 44.9781 38.445 45.2143 38.5666C45.4505 38.6882 45.6294 38.8977 45.7125 39.15C45.791 39.402 45.7668 39.6748 45.645 39.9089C45.5233 40.1431 45.3139 40.3196 45.0625 40.4Z" fill="white"/>
</svg>
