<svg width="80" height="80" viewBox="0 0 80 80" fill="none" xmlns="http://www.w3.org/2000/svg">
<path d="M0 40C0 17.9086 17.9086 0 40 0C62.0914 0 80 17.9086 80 40C80 62.0914 62.0914 80 40 80C17.9086 80 0 62.0914 0 40Z" fill="#22A7F6"/>
<path d="M55.2969 45.5L55.3438 45.3438C56.5525 41.8838 56.5525 38.1162 55.3438 34.6562L55.2969 34.5C54.1604 31.3537 52.0824 28.6339 49.3454 26.7104C46.6084 24.787 43.3453 23.7533 40 23.75C36.6548 23.7533 33.3917 24.787 30.6547 26.7104C27.9177 28.6339 25.8397 31.3537 24.7032 34.5L24.6563 34.6562C23.4476 38.1162 23.4476 41.8838 24.6563 45.3438L24.7032 45.5C25.8435 48.6438 27.9226 51.3611 30.6587 53.2839C33.3948 55.2068 36.6558 56.2422 40 56.25C43.3453 56.2467 46.6084 55.213 49.3454 53.2896C52.0824 51.3661 54.1604 48.6463 55.2969 45.5ZM40 27.125C41.8202 28.9973 43.1837 31.2645 43.9844 33.75H36.0157C36.8163 31.2645 38.1799 28.9973 40 27.125ZM36.0157 46.25H43.9844C43.1837 48.7355 41.8202 51.0027 40 52.875C38.1799 51.0027 36.8163 48.7355 36.0157 46.25ZM35.3594 43.75C34.8804 41.2729 34.8804 38.7271 35.3594 36.25H44.6407C45.1197 38.7271 45.1197 41.2729 44.6407 43.75H35.3594ZM47.1875 36.25H53.2344C53.9221 38.7027 53.9221 41.2973 53.2344 43.75H47.1875C47.6042 41.2674 47.6042 38.7326 47.1875 36.25ZM52.25 33.75H46.625C45.8732 31.1177 44.5918 28.6666 42.8594 26.5469C44.8598 26.9788 46.7395 27.8488 48.3633 29.0944C49.987 30.3399 51.3145 31.9299 52.25 33.75ZM42.8594 53.4531C44.5918 51.3334 45.8732 48.8823 46.625 46.25H52.25C51.3145 48.0701 49.987 49.6601 48.3633 50.9056C46.7395 52.1512 44.8598 53.0212 42.8594 53.4531Z" fill="white"/>
</svg>
