<svg width="80" height="80" viewBox="0 0 80 80" fill="none" xmlns="http://www.w3.org/2000/svg">
<path d="M0 40C0 17.9086 17.9086 0 40 0C62.0914 0 80 17.9086 80 40C80 62.0914 62.0914 80 40 80C17.9086 80 0 62.0914 0 40Z" fill="#36C994"/>
<path d="M40.6125 52.9247C40.4305 52.8482 40.2752 52.7195 40.1662 52.5549C40.0572 52.3903 39.9994 52.1971 40 51.9997V46.9997H37C36.7348 46.9997 36.4804 46.8944 36.2929 46.7068C36.1054 46.5193 36 46.2649 36 45.9997V33.9997C36 33.7345 36.1054 33.4801 36.2929 33.2926C36.4804 33.1051 36.7348 32.9997 37 32.9997H40V27.9997C39.9994 27.8023 40.0572 27.6091 40.1662 27.4445C40.2752 27.2799 40.4305 27.1512 40.6125 27.0747C40.7972 27.0027 40.9985 26.9844 41.1932 27.022C41.3879 27.0596 41.5679 27.1515 41.7125 27.2872L53.7125 39.2872C53.9003 39.4768 54.0056 39.7329 54.0056 39.9997C54.0056 40.2666 53.9003 40.5226 53.7125 40.7122L41.7125 52.7122C41.5679 52.8479 41.3879 52.9398 41.1932 52.9774C40.9985 53.015 40.7972 52.9968 40.6125 52.9247ZM30 45.9997V33.9997C30 33.7345 29.8946 33.4801 29.7071 33.2926C29.5196 33.1051 29.2652 32.9997 29 32.9997C28.7348 32.9997 28.4804 33.1051 28.2929 33.2926C28.1054 33.4801 28 33.7345 28 33.9997V45.9997C28 46.2649 28.1054 46.5193 28.2929 46.7068C28.4804 46.8944 28.7348 46.9997 29 46.9997C29.2652 46.9997 29.5196 46.8944 29.7071 46.7068C29.8946 46.5193 30 46.2649 30 45.9997ZM34 45.9997V33.9997C34 33.7345 33.8946 33.4801 33.7071 33.2926C33.5196 33.1051 33.2652 32.9997 33 32.9997C32.7348 32.9997 32.4804 33.1051 32.2929 33.2926C32.1054 33.4801 32 33.7345 32 33.9997V45.9997C32 46.2649 32.1054 46.5193 32.2929 46.7068C32.4804 46.8944 32.7348 46.9997 33 46.9997C33.2652 46.9997 33.5196 46.8944 33.7071 46.7068C33.8946 46.5193 34 46.2649 34 45.9997Z" fill="white"/>
</svg>
